<svg width="607" height="530" viewBox="0 0 607 530" fill="none" xmlns="http://www.w3.org/2000/svg">
<path d="M29.2469 180.608L0.027102 164.161C-0.367041 146.566 3.54301 129.14 11.4177 113.396C18.1545 143.952 53.6078 158.489 69.9655 185.168C75.0035 193.527 78.0944 202.913 79.0091 212.629C79.9239 222.345 78.639 232.142 75.2497 241.294L77.1714 264.985C62.0696 260.465 48.1279 252.726 36.3069 242.303C24.4859 231.881 15.0666 219.021 8.698 204.61C5.20537 196.49 2.7499 187.963 1.38953 179.23C15.0131 180.678 29.2469 180.608 29.2469 180.608Z" fill="#F2F2F2"/>
<path d="M554.521 479.81L555.417 459.678C564.758 454.689 575.176 452.053 585.767 452C571.19 463.909 573.012 486.865 563.13 502.88C560.009 507.851 555.809 512.057 550.841 515.185C545.873 518.314 540.264 520.285 534.43 520.953L522.232 528.417C520.558 519.092 520.927 509.516 523.313 500.348C525.7 491.18 530.047 482.637 536.055 475.31C539.466 471.232 543.378 467.6 547.697 464.5C550.619 472.198 554.521 479.81 554.521 479.81Z" fill="#F2F2F2"/>
<path d="M523.093 518.056L512.047 518.055L506.793 475.483L523.094 475.484L523.093 518.056Z" fill="#FFB6B6"/>
<path d="M525.909 528.755L490.295 528.754V528.303C490.296 524.63 491.756 521.106 494.356 518.509C496.955 515.911 500.481 514.452 504.157 514.451H504.158L510.663 509.52L522.801 514.452L525.91 514.452L525.909 528.755Z" fill="#2F2E41"/>
<path d="M471.779 518.056L460.734 518.055L455.48 475.483L471.782 475.484L471.779 518.056Z" fill="#FFB6B6"/>
<path d="M474.596 528.755L438.982 528.754V528.303C438.983 524.63 440.443 521.106 443.043 518.509C445.642 515.911 449.168 514.452 452.844 514.451H452.845L459.35 509.52L471.488 514.452L474.597 514.452L474.596 528.755Z" fill="#2F2E41"/>
<path d="M466.998 285.309L538.84 287.104C552.484 294.509 552.691 310.538 548.221 329.569C548.221 329.569 549.73 340.88 546.712 343.896C543.693 346.912 542.184 346.912 543.693 352.191C545.202 357.469 537.229 366.091 538.197 367.059C539.166 368.027 541.429 373.305 541.429 373.305L533.883 416.288C533.883 416.288 528.601 490.941 527.092 492.45C525.583 493.958 524.073 492.45 525.583 496.22C527.092 499.99 528.601 498.482 527.092 499.99C525.755 501.431 524.496 502.941 523.319 504.515H505.075C505.075 504.515 503.699 496.974 503.699 496.22C503.699 495.466 502.19 490.941 502.19 490.187C502.19 489.433 503.524 488.1 503.524 488.1C503.985 486.567 504.296 484.993 504.454 483.401C504.454 481.892 508.981 423.828 508.981 423.828L499.926 348.421L478.043 422.32C478.043 422.32 478.043 487.171 476.533 488.679C475.024 490.187 475.024 489.433 475.779 492.45C476.533 495.466 479.552 494.712 477.288 496.974C475.024 499.236 474.27 495.466 475.024 499.236L475.779 503.007L453.141 503.33C453.141 503.33 450.122 496.974 451.631 494.712C453.141 492.45 453.05 493.067 451.209 489.365C449.368 485.663 448.613 484.909 449.368 484.155C450.122 483.401 450.122 479.39 450.122 479.39L453.895 407.239C453.895 407.239 454.65 331.077 454.65 328.814C454.707 327.65 454.492 326.489 454.023 325.422V322.351L456.914 311.471L466.998 285.309Z" fill="#2F2E41"/>
<path d="M510.155 136.03C522.482 136.03 532.476 126.043 532.476 113.724C532.476 101.404 522.482 91.4175 510.155 91.4175C497.827 91.4175 487.833 101.404 487.833 113.724C487.833 126.043 497.827 136.03 510.155 136.03Z" fill="#FFB6B6"/>
<path d="M498.994 150.772C494.185 153.629 491.308 158.878 489.657 164.22C486.6 174.109 484.759 184.334 484.177 194.668L482.433 225.606L460.831 291.481C479.552 307.311 549.923 295.079 549.923 295.079C549.923 295.079 552.083 294.359 549.923 292.201C547.763 290.042 545.66 291.954 547.82 289.796C549.98 287.637 548.491 290.042 547.771 287.883C547.051 285.725 547.771 287.164 548.491 286.444C549.211 285.725 542.917 279.249 542.917 279.249L548.677 241.436L555.878 165.163C547.237 154.37 529.86 148.007 529.86 148.007L525.37 139.931L502.919 141.726L498.994 150.772Z" fill="#E6E6E6"/>
<path d="M495.932 100.633C496.796 100.639 497.656 100.752 498.492 100.968C500.14 101.364 501.814 101.645 503.502 101.808C508.669 102.294 513.525 104.496 517.293 108.063C521.061 111.63 523.524 116.356 524.289 121.486C525.586 120.356 528.538 118.277 530.957 120.209C530.994 120.24 531.015 120.255 531.1 120.215C532.707 119.453 535.559 110.079 535.645 101.825C535.691 97.4441 535.001 91.8498 531.455 90.0782L531.268 89.9849L531.219 89.782C530.982 88.7966 528.336 87.1144 523.736 85.8051C515.377 83.4258 502.916 78.7908 495.899 85.612C495.368 87.9115 493.641 92.8326 491.896 93.3904C489.963 94.0079 488.294 94.5407 488.031 96.9095C487.811 100.28 487.827 103.663 488.079 107.031C488.734 104.97 490.019 103.166 491.754 101.873C492.987 101.043 494.445 100.61 495.932 100.633Z" fill="#2F2E41"/>
<path d="M454.385 223.883L490.848 200.548L472.483 176.152L454.348 198.443L397.846 201.906C396.36 200.438 394.479 199.434 392.431 199.016C390.384 198.598 388.259 198.785 386.316 199.553C384.373 200.321 382.695 201.637 381.488 203.341C380.28 205.046 379.595 207.064 379.516 209.151C379.436 211.237 379.966 213.302 381.041 215.093C382.115 216.884 383.688 218.324 385.568 219.237C387.447 220.15 389.552 220.497 391.625 220.235C393.698 219.974 395.65 219.115 397.243 217.764L454.385 223.883Z" fill="#FFB6B6"/>
<path d="M524.69 167.977C526.806 180.775 486.842 205.214 486.842 205.214C486.842 202.21 462.989 224.888 461.913 222.397C458.853 215.316 456.701 198.545 452.425 195.861C449.98 194.326 467.152 179.905 467.152 179.905C467.152 179.905 476.141 170.855 487.937 159.441C491.212 156.152 495.266 153.745 499.723 152.443C504.179 151.142 508.893 150.988 513.425 151.996C513.425 151.996 522.574 155.178 524.69 167.977Z" fill="#E6E6E6"/>
<path d="M599.845 230.009L575.726 194.074L551.708 212.938L574.394 230.584L579.055 286.961C577.617 288.477 576.652 290.378 576.278 292.432C575.903 294.486 576.134 296.605 576.944 298.53C577.753 300.456 579.106 302.104 580.837 303.274C582.567 304.444 584.601 305.086 586.691 305.121C588.78 305.156 590.834 304.583 592.603 303.472C594.372 302.36 595.779 300.758 596.653 298.861C597.527 296.964 597.829 294.854 597.524 292.789C597.218 290.723 596.318 288.791 594.932 287.227L599.845 230.009Z" fill="#FFB6B6"/>
<path d="M542.423 160.952C555.182 158.567 580.48 197.977 580.48 197.977C577.474 198.041 600.668 221.391 598.198 222.52C591.179 225.727 574.446 228.231 571.851 232.56C570.366 235.035 555.575 218.184 555.575 218.184C555.575 218.184 546.331 209.396 534.662 197.852C531.302 194.65 528.808 190.65 527.411 186.226C526.014 181.801 525.761 177.095 526.674 172.546C526.674 172.546 529.663 163.338 542.423 160.952Z" fill="#E6E6E6"/>
<path d="M606.006 528.932C606.006 529.073 605.979 529.212 605.926 529.341C605.872 529.471 605.793 529.589 605.694 529.688C605.595 529.787 605.477 529.866 605.347 529.92C605.217 529.973 605.078 530 604.937 530H353.231C352.948 530 352.676 529.888 352.476 529.687C352.275 529.487 352.163 529.215 352.163 528.932C352.163 528.649 352.275 528.377 352.476 528.177C352.676 527.977 352.948 527.864 353.231 527.864H604.937C605.078 527.864 605.217 527.891 605.347 527.945C605.477 527.998 605.595 528.077 605.694 528.176C605.793 528.275 605.872 528.393 605.926 528.523C605.979 528.653 606.006 528.792 606.006 528.932Z" fill="#CCCCCC"/>
<path d="M372.829 205.317H67.3501C62.5775 205.322 58.0019 207.219 54.6271 210.592C51.2523 213.964 49.354 218.537 49.3486 223.306V413.363C49.3541 418.133 51.2524 422.705 54.6271 426.078C58.0019 429.45 62.5775 431.347 67.3501 431.352H372.829C377.602 431.347 382.178 429.45 385.552 426.078C388.927 422.705 390.826 418.133 390.831 413.363V223.306C390.826 218.537 388.927 213.964 385.553 210.592C382.178 207.219 377.602 205.322 372.829 205.317Z" fill="#FA8349"/>
<path d="M372.829 205.317H67.3501C62.5775 205.322 58.0019 207.219 54.6271 210.592C51.2523 213.964 49.354 218.537 49.3486 223.306V413.363C49.3541 418.133 51.2524 422.705 54.6271 426.078C58.0019 429.45 62.5775 431.347 67.3501 431.352H372.829C377.602 431.347 382.178 429.45 385.552 426.078C388.927 422.705 390.826 418.133 390.831 413.363V223.306C390.826 218.537 388.927 213.964 385.553 210.592C382.178 207.219 377.602 205.322 372.829 205.317ZM378.737 341.838C378.664 361.187 371.005 379.736 357.403 393.507C343.802 407.278 325.341 415.173 305.981 415.499C274.984 415.902 323.131 416.06 285.747 416.06C200.262 416.06 111.125 415.243 77.867 414.714C73.4913 414.624 69.3242 412.828 66.2554 409.709C63.1867 406.591 61.4595 402.397 61.4426 398.024V223.32C61.4443 221.754 62.0667 220.252 63.1735 219.143C64.2804 218.034 65.7816 217.409 67.3489 217.403H372.817C374.384 217.405 375.887 218.027 376.996 219.133C378.105 220.238 378.731 221.738 378.737 223.304V341.838Z" fill="#3F3D56"/>
<path d="M335.225 95.8757H102.482C100.423 95.8787 98.4149 96.5167 96.7319 97.7026C95.049 98.8885 93.7733 100.565 93.0791 102.502L57.1335 203.279C56.5971 204.783 56.4298 206.394 56.6458 207.976C56.8617 209.559 57.4546 211.066 58.3746 212.372C59.2946 213.677 60.5148 214.743 61.9327 215.48C63.3506 216.216 64.9247 216.602 66.5227 216.604L378.669 217.158H378.683C380.335 217.158 381.961 216.748 383.416 215.965C384.87 215.183 386.108 214.052 387.017 212.674C387.926 211.295 388.479 209.713 388.626 208.069C388.773 206.425 388.509 204.77 387.859 203.253L387.314 203.485L387.859 203.253L344.401 101.922C343.633 100.126 342.353 98.5963 340.722 97.5214C339.091 96.4464 337.179 95.8742 335.225 95.8757Z" fill="#3F3D56"/>
<path d="M388.667 205.441C388.666 206.792 388.391 208.129 387.859 209.372L344.403 287.373C343.63 289.164 342.349 290.691 340.718 291.764C339.087 292.837 337.178 293.41 335.226 293.412H102.486C100.426 293.41 98.4167 292.773 96.7324 291.588C95.0481 290.403 93.7708 288.727 93.0747 286.79L57.1359 209.345C56.6954 208.111 56.5026 206.802 56.5684 205.494C56.6342 204.186 56.9574 202.903 57.5195 201.72C58.0816 200.536 58.8716 199.475 59.8444 198.597C60.8171 197.719 61.9535 197.041 63.1886 196.602C64.257 196.216 65.3843 196.019 66.5203 196.018L104.65 195.947L120.213 195.92L324.997 195.561L340.569 195.534L378.672 195.462H378.681C381.329 195.462 383.869 196.514 385.742 198.385C387.614 200.257 388.666 202.794 388.667 205.441Z" fill="#3F3D56"/>
<path d="M90.2513 347.882C94.8665 347.882 158.244 351.752 158.244 356.364C158.244 360.976 94.8665 364.583 90.2513 364.583C88.035 364.583 85.9094 363.704 84.3422 362.138C82.7751 360.571 81.8947 358.447 81.8947 356.233C81.8947 354.018 82.7751 351.894 84.3422 350.328C85.9094 348.762 88.035 347.882 90.2513 347.882Z" fill="#3F3D56"/>
<path d="M320.732 34.5681H124.487C119.228 34.5742 114.186 36.6647 110.467 40.381C106.748 44.0973 104.656 49.1359 104.65 54.3916V293.413H335.226C337.119 293.419 338.974 292.88 340.569 291.86V54.3916C340.563 49.1359 338.471 44.0973 334.752 40.381C331.033 36.6647 325.991 34.5742 320.732 34.5681Z" fill="#E6E6E6"/>
<path d="M245.828 50.6404H138.281C133.492 50.645 128.9 52.5476 125.513 55.9307C122.126 59.3139 120.22 63.9014 120.213 68.687V293.413H324.997V129.755C324.973 108.78 316.624 88.6707 301.782 73.8392C286.94 59.0076 266.817 50.6646 245.828 50.6404Z" fill="white"/>
<path d="M290.109 273.455H155.101C153.934 273.455 152.815 273.918 151.989 274.743C151.164 275.567 150.701 276.686 150.701 277.852C150.701 279.018 151.164 280.136 151.989 280.961C152.815 281.786 153.934 282.249 155.101 282.249H290.109C291.276 282.249 292.395 281.786 293.221 280.961C294.046 280.136 294.509 279.018 294.509 277.852C294.509 276.686 294.046 275.567 293.221 274.743C292.395 273.918 291.276 273.455 290.109 273.455Z" fill="#E4E4E4"/>
<path d="M290.109 256.063H155.101C153.933 256.063 152.812 256.527 151.986 257.352C151.16 258.178 150.696 259.297 150.696 260.465C150.696 261.632 151.16 262.752 151.986 263.577C152.812 264.403 153.933 264.866 155.101 264.866H290.109C291.277 264.866 292.398 264.403 293.224 263.577C294.05 262.752 294.514 261.632 294.514 260.465C294.514 259.297 294.05 258.178 293.224 257.352C292.398 256.527 291.277 256.063 290.109 256.063Z" fill="#E4E4E4"/>
<path d="M213.625 238.68H155.101C153.934 238.68 152.815 239.144 151.989 239.968C151.164 240.793 150.701 241.911 150.701 243.078C150.701 244.244 151.164 245.362 151.989 246.187C152.815 247.012 153.934 247.475 155.101 247.475H213.625C214.792 247.475 215.911 247.012 216.736 246.187C217.562 245.362 218.025 244.244 218.025 243.078C218.025 241.911 217.562 240.793 216.736 239.968C215.911 239.144 214.792 238.68 213.625 238.68Z" fill="#E4E4E4"/>
<path d="M290.109 202.264H155.101C153.933 202.264 152.812 202.728 151.986 203.553C151.16 204.379 150.696 205.498 150.696 206.666C150.696 207.833 151.16 208.953 151.986 209.778C152.812 210.604 153.933 211.068 155.101 211.068H290.109C291.277 211.068 292.398 210.604 293.224 209.778C294.05 208.953 294.514 207.833 294.514 206.666C294.514 205.498 294.05 204.379 293.224 203.553C292.398 202.728 291.277 202.264 290.109 202.264Z" fill="#E4E4E4"/>
<path d="M290.109 184.882H155.101C153.934 184.882 152.815 185.345 151.989 186.17C151.164 186.994 150.701 188.113 150.701 189.279C150.701 190.445 151.164 191.563 151.989 192.388C152.815 193.213 153.934 193.676 155.101 193.676H290.109C291.276 193.676 292.395 193.213 293.221 192.388C294.046 191.563 294.509 190.445 294.509 189.279C294.509 188.113 294.046 186.994 293.221 186.17C292.395 185.345 291.276 184.882 290.109 184.882Z" fill="#E4E4E4"/>
<path d="M213.625 167.49H155.101C153.933 167.49 152.812 167.954 151.986 168.779C151.16 169.605 150.696 170.725 150.696 171.892C150.696 173.059 151.16 174.179 151.986 175.004C152.812 175.83 153.933 176.294 155.101 176.294H213.625C214.793 176.294 215.913 175.83 216.739 175.004C217.566 174.179 218.03 173.059 218.03 171.892C218.03 170.725 217.566 169.605 216.739 168.779C215.913 167.954 214.793 167.49 213.625 167.49Z" fill="#E4E4E4"/>
<path d="M290.109 131.074H155.101C153.933 131.074 152.812 131.538 151.986 132.363C151.16 133.189 150.696 134.308 150.696 135.476C150.696 136.643 151.16 137.763 151.986 138.588C152.812 139.414 153.933 139.877 155.101 139.877H290.109C291.277 139.877 292.398 139.414 293.224 138.588C294.05 137.763 294.514 136.643 294.514 135.476C294.514 134.308 294.05 133.189 293.224 132.363C292.398 131.538 291.277 131.074 290.109 131.074Z" fill="#FA8349"/>
<path d="M290.109 113.691H155.101C153.933 113.691 152.812 114.155 151.986 114.981C151.16 115.806 150.696 116.926 150.696 118.093C150.696 119.261 151.16 120.38 151.986 121.206C152.812 122.031 153.933 122.495 155.101 122.495H290.109C291.277 122.495 292.398 122.031 293.224 121.206C294.05 120.38 294.514 119.261 294.514 118.093C294.514 116.926 294.05 115.806 293.224 114.981C292.398 114.155 291.277 113.691 290.109 113.691Z" fill="#FA8349"/>
<path d="M213.625 96.2998H155.101C153.933 96.2998 152.812 96.7636 151.986 97.589C151.16 98.4145 150.696 99.5341 150.696 100.702C150.696 101.869 151.16 102.989 151.986 103.814C152.812 104.639 153.933 105.103 155.101 105.103H213.625C214.793 105.103 215.913 104.639 216.739 103.814C217.566 102.989 218.03 101.869 218.03 100.702C218.03 99.5341 217.566 98.4145 216.739 97.589C215.913 96.7636 214.793 96.2998 213.625 96.2998Z" fill="#FA8349"/>
<path d="M333.212 68.4942C352.139 68.4942 367.483 53.1613 367.483 34.2471C367.483 15.333 352.139 0 333.212 0C314.284 0 298.941 15.333 298.941 34.2471C298.941 53.1613 314.284 68.4942 333.212 68.4942Z" fill="#FA8349"/>
<path d="M328.536 52.071C327.944 52.071 327.361 51.9333 326.831 51.6688C326.302 51.4042 325.842 51.0201 325.487 50.5469L316.137 38.0892C315.835 37.6891 315.615 37.2334 315.49 36.7482C315.364 36.263 315.336 35.7578 315.406 35.2616C315.476 34.7654 315.644 34.2879 315.899 33.8565C316.154 33.4251 316.492 33.0483 316.893 32.7477C317.295 32.447 317.751 32.2284 318.237 32.1043C318.723 31.9803 319.229 31.9533 319.725 32.0249C320.221 32.0965 320.699 32.2652 321.13 32.5214C321.561 32.7776 321.937 33.1163 322.237 33.5181L328.354 41.6676L344.064 18.1188C344.625 17.2781 345.497 16.6945 346.488 16.4964C347.48 16.2982 348.509 16.5017 349.35 17.0622C350.192 17.6226 350.776 18.4941 350.974 19.4848C351.172 20.4756 350.969 21.5045 350.408 22.3451L331.708 50.3746C331.37 50.8815 330.915 51.3 330.382 51.5949C329.848 51.8899 329.252 52.0528 328.642 52.0698C328.607 52.0704 328.572 52.071 328.536 52.071Z" fill="white"/>
</svg>
