<svg width="428" height="401" viewBox="0 0 428 401" fill="none" xmlns="http://www.w3.org/2000/svg">
<path d="M340.887 284.905C340.887 284.905 393.836 287.648 381.503 304.346C369.17 321.044 336.763 294.551 336.763 294.551L340.887 284.905Z" fill="#FFB8B8"/>
<path d="M243.31 125.859L254.088 128.558C254.088 128.558 260.375 147.452 264.865 164.547C269.356 181.642 278.337 232.927 278.337 232.927L347.967 281.812L339.662 300.423L246.903 263.8L226.246 182.542L243.31 125.859Z" fill="#575A89"/>
<path opacity="0.2" d="M253.451 159.396L249.434 243.665L257.816 268.719L233.262 250.681L253.451 159.396Z" fill="black"/>
<path d="M268.009 308.954C268.009 308.954 279.684 340.445 281.481 362.038C283.277 383.632 285.073 400.727 285.073 400.727H230.287L219.51 384.532V400.727H155.742C155.742 400.727 137.78 342.244 144.965 335.046C152.15 327.848 220.408 297.258 220.408 297.258L268.009 308.954Z" fill="#2F2E41"/>
<path d="M199.302 91.6689C218.151 91.6689 233.431 76.3616 233.431 57.4791C233.431 38.5966 218.151 23.2893 199.302 23.2893C180.453 23.2893 165.173 38.5966 165.173 57.4791C165.173 76.3616 180.453 91.6689 199.302 91.6689Z" fill="#FFB8B8"/>
<path d="M173.256 71.8748L170.562 111.463L204.691 157.349L221.755 114.162C221.755 114.162 206.487 104.265 215.468 83.5713L173.256 71.8748Z" fill="#FFB8B8"/>
<path d="M272.946 316.601C272.946 324.702 250.493 337.296 250.493 337.296V341.794L241.512 346.293L221.754 306.707L216.369 349.89C216.369 349.89 176.848 356.192 164.276 349.89C151.699 343.593 145.413 346.293 127.451 339.996C109.488 333.699 134.637 249.121 134.637 249.121L116.675 118.661L155.917 99.0046L157.985 97.966L163.381 96.9712L171.653 95.4407L199.301 114.162L201.527 125.86L202.897 133.059L210.077 124.958L215.501 107.089L254.089 128.56L243.312 214.931C243.312 214.931 272.946 308.506 272.946 316.601Z" fill="#575A89"/>
<path d="M140.923 344.493C140.923 344.493 182.237 377.783 162.478 384.082C142.72 390.38 131.942 349.892 131.942 349.892L140.923 344.493Z" fill="#FFB8B8"/>
<path d="M125.655 120.46L116.674 118.661C116.674 118.661 103.202 125.859 102.304 140.254C101.406 154.65 89.7299 255.42 89.7299 255.42L127.451 357.09L157.988 345.393L128.349 250.022L150.803 167.246L125.655 120.46Z" fill="#575A89"/>
<path d="M203.252 147.918C205.06 147.918 206.525 146.449 206.525 144.638C206.525 142.827 205.06 141.358 203.252 141.358C201.443 141.358 199.978 142.827 199.978 144.638C199.978 146.449 201.443 147.918 203.252 147.918Z" fill="#2F2E41"/>
<path d="M203.252 169.235C205.06 169.235 206.525 167.767 206.525 165.956C206.525 164.144 205.06 162.676 203.252 162.676C201.443 162.676 199.978 164.144 199.978 165.956C199.978 167.767 201.443 169.235 203.252 169.235Z" fill="#2F2E41"/>
<path d="M221.803 309.715C223.611 309.715 225.077 308.247 225.077 306.436C225.077 304.624 223.611 303.156 221.803 303.156C219.995 303.156 218.529 304.624 218.529 306.436C218.529 308.247 219.995 309.715 221.803 309.715Z" fill="#2F2E41"/>
<path d="M170.487 22.4533L164.178 19.923C164.178 19.923 177.369 5.37419 195.723 6.63934L190.561 0.946281C190.561 0.946281 203.179 -4.11414 214.649 9.16955C220.679 16.1525 227.656 24.3606 232.005 33.6069H238.762L235.942 39.827L245.812 46.0471L235.681 44.9298C236.285 48.3361 236.378 51.8135 235.956 55.2471C235.522 58.6817 233.772 61.8129 231.077 63.9798V63.9798C231.077 63.9798 223.252 47.7556 223.252 45.2253V51.5509C223.252 51.5509 216.944 45.8579 216.944 42.0626L213.502 46.4905H190.561L194.002 40.7975L180.811 42.6951L185.973 35.7369L165.549 64.4697C165.549 64.4697 153.854 31.9416 170.487 22.4533Z" fill="#2F2E41"/>
<path d="M373.436 264.313C403.571 264.313 428 239.84 428 209.651C428 179.463 403.571 154.99 373.436 154.99C343.301 154.99 318.872 179.463 318.872 209.651C318.872 239.84 343.301 264.313 373.436 264.313Z" fill="#3F3D56"/>
<path opacity="0.1" d="M373.436 256.66C399.352 256.66 420.361 235.614 420.361 209.651C420.361 183.689 399.352 162.643 373.436 162.643C347.52 162.643 326.511 183.689 326.511 209.651C326.511 235.614 347.52 256.66 373.436 256.66Z" fill="black"/>
<path d="M371.187 237.391V230.549C367.735 230.481 364.163 229.262 362.08 227.568L363.508 223.029C365.984 224.888 368.987 225.908 372.08 225.942C376.307 225.942 379.164 223.165 379.164 219.303C379.164 215.577 376.842 213.274 372.437 211.242C366.366 208.532 362.616 205.416 362.616 199.523C362.616 193.9 366.128 189.632 371.604 188.616V181.774H375.295V188.345C378.047 188.383 380.731 189.205 383.033 190.716L381.545 195.187C379.337 193.673 376.72 192.869 374.045 192.884C369.461 192.884 367.735 196 367.735 198.71C367.735 202.232 369.937 203.993 375.116 206.432C381.247 209.278 384.343 212.8 384.343 218.829C384.343 224.181 381.069 229.194 374.937 230.345V237.391H371.187Z" fill="#FA8349"/>
<path opacity="0.2" d="M136.413 275.969L158.236 344.26L140.776 273.2L136.413 275.969Z" fill="black"/>
<path d="M25.1504 142.559H11.2983C10.6946 142.558 10.1158 142.318 9.68889 141.89C9.26198 141.462 9.02185 140.883 9.02118 140.278V120.33C9.02185 119.725 9.26198 119.145 9.68889 118.718C10.1158 118.29 10.6946 118.05 11.2983 118.049H25.1504C25.7541 118.05 26.3329 118.29 26.7598 118.718C27.1867 119.145 27.4269 119.725 27.4275 120.33V140.278C27.4269 140.883 27.1867 141.462 26.7598 141.89C26.3329 142.318 25.7541 142.558 25.1504 142.559V142.559ZM11.2983 119.142C10.9839 119.142 10.6825 119.268 10.4602 119.49C10.2379 119.713 10.1128 120.015 10.1125 120.33V140.278C10.1128 140.593 10.2379 140.895 10.4602 141.117C10.6825 141.34 10.9839 141.465 11.2983 141.466H25.1504C25.4648 141.465 25.7662 141.34 25.9885 141.117C26.2108 140.895 26.3359 140.593 26.3362 140.278V120.33C26.3359 120.015 26.2108 119.713 25.9885 119.49C25.7662 119.268 25.4648 119.142 25.1504 119.142H11.2983Z" fill="#3F3D56"/>
<path d="M50.4516 142.559H37.9423C37.1606 142.558 36.4112 142.246 35.8584 141.693C35.3056 141.139 34.9947 140.388 34.9938 139.605V99.32C34.9947 98.5369 35.3056 97.7861 35.8584 97.2324C36.4112 96.6786 37.1606 96.3671 37.9423 96.3662H50.4516C51.2333 96.3671 51.9827 96.6786 52.5355 97.2324C53.0883 97.7861 53.3992 98.5369 53.4001 99.32V139.605C53.3992 140.388 53.0883 141.139 52.5355 141.693C51.9827 142.246 51.2333 142.558 50.4516 142.559V142.559ZM37.9423 97.4594C37.4499 97.46 36.9778 97.6562 36.6296 98.005C36.2814 98.3538 36.0856 98.8267 36.0851 99.32V139.605C36.0856 140.098 36.2814 140.571 36.6296 140.92C36.9778 141.269 37.4499 141.465 37.9423 141.466H50.4516C50.944 141.465 51.4161 141.269 51.7643 140.92C52.1124 140.571 52.3083 140.098 52.3088 139.605V99.32C52.3083 98.8267 52.1124 98.3538 51.7643 98.005C51.4161 97.6562 50.944 97.46 50.4516 97.4594L37.9423 97.4594Z" fill="#3F3D56"/>
<path d="M75.9412 142.559H64.3979C63.4882 142.558 62.6159 142.195 61.9726 141.551C61.3293 140.906 60.9674 140.033 60.9664 139.121V79.8561C60.9674 78.9447 61.3293 78.0709 61.9726 77.4265C62.6159 76.782 63.4882 76.4195 64.3979 76.4185H75.9412C76.8509 76.4195 77.7232 76.782 78.3665 77.4265C79.0098 78.0709 79.3717 78.9447 79.3727 79.8561V139.121C79.3717 140.033 79.0098 140.906 78.3665 141.551C77.7232 142.195 76.8509 142.558 75.9412 142.559V142.559ZM64.3979 77.5117C63.7775 77.5124 63.1826 77.7596 62.7439 78.1991C62.3051 78.6387 62.0584 79.2346 62.0577 79.8561V139.121C62.0584 139.743 62.3051 140.339 62.7439 140.778C63.1826 141.218 63.7775 141.465 64.3979 141.466H75.9412C76.5616 141.465 77.1565 141.218 77.5952 140.778C78.034 140.339 78.2807 139.743 78.2814 139.121V79.8561C78.2807 79.2346 78.034 78.6387 77.5952 78.1991C77.1565 77.7596 76.5616 77.5124 75.9412 77.5117H64.3979Z" fill="#3F3D56"/>
<path d="M23.4189 121.848H13.0299V138.76H23.4189V121.848Z" fill="#FA8349"/>
<path d="M49.3915 100.382H39.0024V138.76H49.3915V100.382Z" fill="#FA8349"/>
<path d="M75.364 80.4343H64.975V138.76H75.364V80.4343Z" fill="#FA8349"/>
<path d="M394.499 79.6982H321.929C321.857 79.6982 321.786 79.6841 321.72 79.6566C321.653 79.6292 321.593 79.5889 321.543 79.5381C321.492 79.4874 321.452 79.4271 321.424 79.3608C321.397 79.2945 321.383 79.2234 321.383 79.1516V5.35863C321.383 5.21366 321.44 5.07462 321.543 4.97211C321.645 4.8696 321.784 4.81201 321.929 4.81201C322.073 4.81201 322.212 4.8696 322.314 4.97211C322.417 5.07462 322.474 5.21366 322.474 5.35863V78.605H394.499C394.644 78.605 394.782 78.6626 394.885 78.7651C394.987 78.8676 395.044 79.0066 395.044 79.1516C395.044 79.2966 394.987 79.4356 394.885 79.5381C394.782 79.6406 394.644 79.6982 394.499 79.6982Z" fill="#3F3D56"/>
<path d="M86.757 150.212H0.545642C0.473982 150.212 0.403022 150.197 0.336813 150.17C0.270604 150.142 0.210444 150.102 0.159773 150.051C0.109101 150.001 0.0689104 149.94 0.041496 149.874C0.0140815 149.808 -1.86204e-05 149.737 1.84547e-08 149.665V63.8464C1.84547e-08 63.7014 0.0574867 63.5624 0.159814 63.4599C0.262142 63.3574 0.400928 63.2998 0.545642 63.2998C0.690355 63.2998 0.829141 63.3574 0.931469 63.4599C1.0338 63.5624 1.09128 63.7014 1.09128 63.8464V149.118H86.757C86.9017 149.118 87.0405 149.176 87.1429 149.278C87.2452 149.381 87.3027 149.52 87.3027 149.665C87.3027 149.81 87.2452 149.949 87.1429 150.051C87.0405 150.154 86.9017 150.212 86.757 150.212Z" fill="#3F3D56"/>
<path d="M346.973 72.8475H333.121C332.517 72.8469 331.938 72.6064 331.511 72.1787C331.084 71.751 330.844 71.1711 330.843 70.5663V50.6186C330.844 50.0138 331.084 49.4339 331.511 49.0062C331.938 48.5785 332.517 48.338 333.121 48.3374H346.973C347.576 48.3381 348.155 48.5787 348.582 49.0064C349.009 49.434 349.249 50.0138 349.25 50.6186V70.5663C349.249 71.1711 349.009 71.7509 348.582 72.1785C348.155 72.6062 347.576 72.8468 346.973 72.8475ZM333.121 49.4306C332.806 49.431 332.505 49.5563 332.282 49.779C332.06 50.0017 331.935 50.3036 331.934 50.6186V70.5663C331.935 70.8813 332.06 71.1833 332.282 71.406C332.505 71.6287 332.806 71.7539 333.121 71.7543H346.973C347.287 71.7539 347.588 71.6286 347.811 71.4059C348.033 71.1832 348.158 70.8813 348.158 70.5663V50.6186C348.158 50.3037 348.033 50.0017 347.811 49.779C347.588 49.5563 347.287 49.431 346.973 49.4306H333.121Z" fill="#3F3D56"/>
<path d="M375.34 72.8477H362.591C361.841 72.8468 361.122 72.548 360.591 72.0167C360.061 71.4855 359.763 70.7652 359.762 70.014V33.883C359.763 33.1318 360.061 32.4116 360.592 31.8804C361.122 31.3492 361.841 31.0504 362.591 31.0496H375.34C376.09 31.0504 376.809 31.3492 377.339 31.8804C377.869 32.4116 378.168 33.1318 378.169 33.883V70.014C378.168 70.7652 377.869 71.4855 377.339 72.0167C376.809 72.548 376.09 72.8468 375.34 72.8477V72.8477ZM362.591 32.1428C362.13 32.1433 361.688 32.3268 361.363 32.653C361.037 32.9793 360.854 33.4216 360.853 33.883V70.014C360.854 70.4754 361.037 70.9178 361.363 71.2441C361.688 71.5704 362.13 71.754 362.591 71.7545H375.34C375.801 71.754 376.242 71.5704 376.568 71.2441C376.894 70.9178 377.077 70.4754 377.077 70.014V33.883C377.077 33.4216 376.894 32.9793 376.568 32.653C376.242 32.3268 375.801 32.1433 375.34 32.1428H362.591Z" fill="#3F3D56"/>
<path d="M344.992 52.3257H334.603V69.2379H344.992V52.3257Z" fill="#FA8349"/>
<path d="M374.16 35.5874H363.771V68.3098H374.16V35.5874Z" fill="#FA8349"/>
<path d="M339.935 42.5285C342.647 42.5285 344.846 40.326 344.846 37.609C344.846 34.892 342.647 32.6895 339.935 32.6895C337.223 32.6895 335.024 34.892 335.024 37.609C335.024 40.326 337.223 42.5285 339.935 42.5285Z" fill="#FA8349"/>
<path d="M368.854 23.9436C371.566 23.9436 373.764 21.741 373.764 19.024C373.764 16.307 371.566 14.1045 368.854 14.1045C366.142 14.1045 363.943 16.307 363.943 19.024C363.943 21.741 366.142 23.9436 368.854 23.9436Z" fill="#FA8349"/>
</svg>
