<svg width="248" height="188" viewBox="0 0 248 188" fill="none" xmlns="http://www.w3.org/2000/svg">
<path d="M246.626 11.1466H1.37374C1.00952 11.1462 0.660338 10.9971 0.402798 10.7319C0.145258 10.4668 0.00039809 10.1074 0 9.73245V1.41413C0.00039809 1.0392 0.145258 0.679751 0.402798 0.414638C0.660338 0.149526 1.00952 0.000408953 1.37374 0H246.626C246.99 0.000409796 247.34 0.149531 247.597 0.414643C247.855 0.679755 248 1.0392 248 1.41413V9.73246C248 10.1074 247.855 10.4668 247.597 10.7319C247.34 10.9971 246.99 11.1462 246.626 11.1466Z" fill="#E4E4E4"/>
<path d="M7.97238 7.17522C9.04954 7.17522 9.92274 6.27634 9.92274 5.16751C9.92274 4.05868 9.04954 3.15979 7.97238 3.15979C6.89523 3.15979 6.02202 4.05868 6.02202 5.16751C6.02202 6.27634 6.89523 7.17522 7.97238 7.17522Z" fill="white"/>
<path d="M15.3753 7.17522C16.4525 7.17522 17.3257 6.27634 17.3257 5.16751C17.3257 4.05868 16.4525 3.15979 15.3753 3.15979C14.2982 3.15979 13.425 4.05868 13.425 5.16751C13.425 6.27634 14.2982 7.17522 15.3753 7.17522Z" fill="white"/>
<path d="M22.7786 7.17522C23.8558 7.17522 24.729 6.27634 24.729 5.16751C24.729 4.05868 23.8558 3.15979 22.7786 3.15979C21.7015 3.15979 20.8282 4.05868 20.8282 5.16751C20.8282 6.27634 21.7015 7.17522 22.7786 7.17522Z" fill="white"/>
<path d="M239.373 3.78566H230.848C230.681 3.78528 230.521 3.71662 230.403 3.59476C230.284 3.4729 230.218 3.30778 230.218 3.13562C230.218 2.96347 230.284 2.79836 230.403 2.67649C230.521 2.55463 230.681 2.48598 230.848 2.4856H239.373C239.54 2.48547 239.701 2.55374 239.819 2.67539C239.938 2.79704 240.005 2.96214 240.005 3.13441C240.005 3.30668 239.939 3.47203 239.821 3.59414C239.703 3.71625 239.543 3.78513 239.375 3.78566H239.373Z" fill="white"/>
<path d="M239.373 6.22328H230.848C230.681 6.2229 230.521 6.15424 230.403 6.03238C230.284 5.91052 230.218 5.7454 230.218 5.57325C230.218 5.4011 230.284 5.23598 230.403 5.11412C230.521 4.99225 230.681 4.9236 230.848 4.92322H239.373C239.54 4.92309 239.701 4.99136 239.819 5.11301C239.938 5.23466 240.005 5.39976 240.005 5.57203C240.005 5.7443 239.939 5.90965 239.821 6.03176C239.703 6.15387 239.543 6.22276 239.375 6.22328H239.373Z" fill="white"/>
<path d="M239.373 8.66091H230.848C230.681 8.66091 230.52 8.59242 230.402 8.47052C230.283 8.34861 230.217 8.18328 230.217 8.01088C230.217 7.83848 230.283 7.67314 230.402 7.55123C230.52 7.42933 230.681 7.36084 230.848 7.36084H239.373C239.54 7.36052 239.701 7.42869 239.82 7.55037C239.938 7.67204 240.005 7.83725 240.006 8.00965C240.006 8.18205 239.94 8.34752 239.822 8.46965C239.703 8.59179 239.543 8.66058 239.375 8.66091H239.373Z" fill="white"/>
<path d="M69.9305 165.298C70.833 157.828 75.3303 150.468 82.251 148.037C79.5217 155.726 79.5223 164.161 82.2527 171.849C83.3162 174.81 84.7985 177.99 83.7982 180.974C83.1758 182.831 81.6532 184.252 79.9513 185.14C78.2492 186.029 76.3603 186.452 74.4951 186.867L74.128 187.18C71.1669 180.297 69.0281 172.768 69.9305 165.298Z" fill="#F0F0F0"/>
<path d="M82.3197 148.178C78.2894 152.827 75.7845 158.664 75.1607 164.862C75.0034 166.194 75.051 167.543 75.3017 168.859C75.5863 170.133 76.1971 171.306 77.0707 172.255C77.8681 173.157 78.7851 173.984 79.3556 175.07C79.6396 175.63 79.8054 176.246 79.8421 176.877C79.8787 177.507 79.7855 178.139 79.5684 178.73C79.0647 180.217 78.0719 181.429 77.0611 182.58C75.9388 183.857 74.7533 185.166 74.2762 186.86C74.2184 187.065 73.9125 186.961 73.9702 186.756C74.8002 183.809 77.5791 182.135 78.9044 179.481C79.5227 178.243 79.7823 176.805 79.2026 175.497C78.6956 174.354 77.7507 173.5 76.9357 172.594C76.0702 171.681 75.4351 170.564 75.0858 169.34C74.7707 168.041 74.6727 166.696 74.796 165.363C75.0269 162.358 75.7155 159.408 76.8365 156.623C78.0987 153.437 79.8811 150.497 82.1065 147.929C82.2443 147.77 82.4566 148.02 82.3197 148.178L82.3197 148.178Z" fill="white"/>
<path d="M75.2474 162.854C74.2515 162.605 73.374 162 72.7715 161.147C72.1691 160.293 71.881 159.247 71.9586 158.195C71.9622 158.152 71.9817 158.113 72.0132 158.084C72.0447 158.056 72.0856 158.041 72.1274 158.043C72.1691 158.046 72.2084 158.064 72.237 158.096C72.2656 158.127 72.2812 158.169 72.2806 158.212C72.2065 159.191 72.475 160.166 73.0376 160.959C73.6002 161.753 74.4198 162.313 75.3485 162.539C75.5502 162.589 75.448 162.903 75.2474 162.854Z" fill="white"/>
<path d="M76.608 171.853C78.4067 170.747 79.7345 168.984 80.3267 166.916C80.3852 166.711 80.6912 166.815 80.6328 167.02C80.0126 169.171 78.6272 171.003 76.7529 172.149C76.5742 172.258 76.4302 171.961 76.608 171.853Z" fill="white"/>
<path d="M78.3977 153.751C78.7635 153.93 79.1668 154.013 79.5713 153.992C79.9759 153.971 80.369 153.846 80.7153 153.63C80.8926 153.519 81.0364 153.816 80.8603 153.926C80.4765 154.164 80.0422 154.3 79.5953 154.325C79.1484 154.349 78.7026 154.26 78.2966 154.066C78.2569 154.051 78.2242 154.021 78.2051 153.982C78.1861 153.944 78.1821 153.899 78.1941 153.857C78.2077 153.815 78.2367 153.781 78.2748 153.761C78.3129 153.741 78.3571 153.738 78.3977 153.751Z" fill="white"/>
<path d="M103.346 161.379C103.238 161.452 103.129 161.525 103.02 161.601C101.562 162.587 100.185 163.694 98.9018 164.91C98.8011 165.003 98.7004 165.098 98.6025 165.193C95.5409 168.157 93.0405 171.681 91.2284 175.584C90.5087 177.138 89.9049 178.747 89.4222 180.395C88.7557 182.671 88.209 185.194 86.8897 187.056C86.7542 187.252 86.607 187.439 86.4491 187.616H74.5268C74.4997 187.602 74.4725 187.591 74.4453 187.577L73.9692 187.6C73.9884 187.513 74.01 187.423 74.0291 187.336C74.04 187.286 74.0536 187.236 74.0645 187.185C74.0726 187.152 74.0808 187.118 74.0863 187.087C74.0889 187.076 74.0917 187.065 74.0944 187.056C74.0998 187.026 74.1081 186.998 74.1135 186.97C74.2332 186.468 74.3565 185.967 74.4834 185.466C74.4834 185.463 74.4834 185.463 74.486 185.46C75.4177 181.631 76.7874 177.93 78.5662 174.433C78.6207 174.33 78.675 174.223 78.7349 174.12C79.5586 172.572 80.5038 171.096 81.5611 169.707C82.1424 168.948 82.7607 168.22 83.4135 167.526C85.1037 165.735 87.057 164.228 89.2019 163.062C93.4779 160.738 98.4284 159.848 102.998 161.267C103.115 161.304 103.23 161.34 103.346 161.379Z" fill="#F0F0F0"/>
<path d="M103.32 161.535C97.3828 162.749 91.9684 165.857 87.8456 170.419C86.9411 171.385 86.1901 172.492 85.6204 173.698C85.1022 174.892 84.9041 176.207 85.0466 177.506C85.1558 178.72 85.404 179.949 85.2246 181.17C85.1238 181.793 84.8961 182.387 84.5564 182.914C84.2168 183.44 83.773 183.886 83.2539 184.224C81.982 185.099 80.4804 185.452 79.0003 185.744C77.3569 186.068 75.645 186.379 74.2735 187.435C74.1073 187.563 73.924 187.29 74.0899 187.163C76.4762 185.324 79.674 185.71 82.2844 184.412C83.5025 183.806 84.5507 182.819 84.8525 181.416C85.1163 180.189 84.8613 178.922 84.7405 177.693C84.5834 176.428 84.7298 175.142 85.1667 173.948C85.675 172.716 86.3832 171.581 87.2612 170.593C89.2034 168.337 91.4782 166.409 94.0023 164.88C96.8735 163.118 100.016 161.875 103.295 161.204C103.498 161.163 103.521 161.494 103.32 161.535H103.32Z" fill="white"/>
<path d="M89.0891 168.87C88.4395 168.054 88.0928 167.027 88.111 165.972C88.1291 164.917 88.5109 163.903 89.1881 163.112C89.3257 162.952 89.5733 163.165 89.4355 163.324C88.8035 164.061 88.448 165.005 88.4331 165.987C88.4181 166.97 88.7448 167.925 89.354 168.681C89.4863 168.846 89.2206 169.034 89.0891 168.87Z" fill="white"/>
<path d="M84.9125 176.898C86.9953 177.13 89.0865 176.546 90.7692 175.261C90.9358 175.133 91.1192 175.406 90.9528 175.534C89.1993 176.867 87.0218 177.471 84.8549 177.225C84.6484 177.201 84.7071 176.875 84.9125 176.898Z" fill="white"/>
<path d="M96.9285 163.554C97.1159 163.924 97.3896 164.24 97.725 164.474C98.0603 164.707 98.4469 164.852 98.8498 164.894C99.0566 164.915 98.9976 165.241 98.7923 165.22C98.3473 165.172 97.9206 165.012 97.5495 164.754C97.1784 164.497 96.8742 164.15 96.6635 163.743C96.6406 163.707 96.632 163.662 96.6396 163.619C96.6471 163.577 96.6703 163.538 96.7043 163.512C96.7395 163.488 96.7828 163.478 96.8248 163.486C96.8667 163.494 96.904 163.518 96.9285 163.554L96.9285 163.554Z" fill="white"/>
<path d="M80.3842 57.9996H40.9397C39.7208 57.9982 38.5522 57.4991 37.6903 56.6118C36.8284 55.7245 36.3436 54.5216 36.3422 53.2668V31.1517C36.3436 29.897 36.8284 28.694 37.6903 27.8068C38.5522 26.9196 39.7208 26.4206 40.9397 26.4192H80.3842C81.6031 26.4206 82.7716 26.9196 83.6336 27.8068C84.4955 28.694 84.9803 29.897 84.9817 31.1517V53.2668C84.9803 54.5216 84.4955 55.7245 83.6336 56.6118C82.7717 57.4991 81.6031 57.9982 80.3842 57.9996V57.9996Z" fill="#E6E6E6"/>
<path d="M140.604 57.9996H101.16C99.941 57.9982 98.7724 57.4991 97.9105 56.6118C97.0486 55.7245 96.5638 54.5216 96.5625 53.2668V31.1517C96.5638 29.897 97.0486 28.694 97.9105 27.8068C98.7724 26.9196 99.9411 26.4206 101.16 26.4192H140.604C141.823 26.4206 142.992 26.9196 143.854 27.8068C144.716 28.694 145.2 29.897 145.202 31.1517V53.2668C145.201 54.5216 144.716 55.7245 143.854 56.6118C142.992 57.4991 141.823 57.9982 140.604 57.9996Z" fill="#FA8349"/>
<path d="M200.825 57.9996H161.38C160.161 57.9982 158.993 57.4991 158.131 56.6118C157.269 55.7245 156.784 54.5216 156.783 53.2668V31.1517C156.784 29.897 157.269 28.694 158.131 27.8068C158.993 26.9196 160.161 26.4206 161.38 26.4192H200.825C202.044 26.4206 203.212 26.9196 204.074 27.8068C204.936 28.694 205.421 29.897 205.422 31.1517V53.2668C205.421 54.5216 204.936 55.7245 204.074 56.6118C203.212 57.4991 202.044 57.9982 200.825 57.9996Z" fill="#E6E6E6"/>
<path d="M80.3842 107.275H40.9397C39.7208 107.273 38.5522 106.774 37.6903 105.887C36.8284 105 36.3436 103.797 36.3422 102.542V80.4268C36.3436 79.172 36.8284 77.9691 37.6903 77.0818C38.5522 76.1946 39.7208 75.6956 40.9397 75.6942H80.3842C81.6031 75.6956 82.7716 76.1946 83.6336 77.0818C84.4955 77.9691 84.9803 79.172 84.9817 80.4267V102.542C84.9803 103.797 84.4955 105 83.6336 105.887C82.7717 106.774 81.6031 107.273 80.3842 107.275Z" fill="#F2F2F2"/>
<path d="M140.604 107.275H101.16C99.941 107.273 98.7724 106.774 97.9105 105.887C97.0486 105 96.5638 103.797 96.5625 102.542V80.4268C96.5638 79.172 97.0486 77.9691 97.9105 77.0818C98.7724 76.1946 99.9411 75.6956 101.16 75.6942H140.604C141.823 75.6956 142.992 76.1946 143.854 77.0818C144.716 77.9691 145.2 79.172 145.202 80.4267V102.542C145.201 103.797 144.716 105 143.854 105.887C142.992 106.774 141.823 107.273 140.604 107.275Z" fill="#E6E6E6"/>
<path d="M143.389 111.344C147.28 111.344 150.434 108.097 150.434 104.092C150.434 100.087 147.28 96.84 143.389 96.84C139.499 96.84 136.345 100.087 136.345 104.092C136.345 108.097 139.499 111.344 143.389 111.344Z" fill="#FA8349"/>
<path d="M146.315 103.483H143.92V101.017C143.92 100.941 143.905 100.866 143.877 100.795C143.848 100.725 143.807 100.661 143.755 100.607C143.702 100.553 143.64 100.51 143.572 100.481C143.503 100.452 143.43 100.437 143.356 100.437V100.437C143.282 100.437 143.209 100.452 143.14 100.481C143.072 100.51 143.01 100.553 142.958 100.607C142.905 100.661 142.864 100.725 142.835 100.795C142.807 100.866 142.792 100.941 142.792 101.017V103.483H140.397C140.323 103.483 140.25 103.498 140.181 103.527C140.113 103.556 140.051 103.599 139.999 103.653C139.946 103.707 139.905 103.771 139.876 103.841C139.848 103.912 139.834 103.987 139.834 104.063V104.063C139.834 104.139 139.848 104.215 139.876 104.285C139.905 104.356 139.946 104.42 139.999 104.474C140.051 104.527 140.113 104.57 140.181 104.599C140.25 104.628 140.323 104.643 140.397 104.643H142.792V107.109C142.792 107.185 142.807 107.261 142.835 107.331C142.864 107.402 142.905 107.466 142.958 107.519C143.01 107.573 143.072 107.616 143.14 107.645C143.209 107.674 143.282 107.689 143.356 107.689V107.689C143.506 107.689 143.649 107.628 143.755 107.519C143.86 107.411 143.92 107.263 143.92 107.109V104.643H146.315C146.389 104.643 146.462 104.628 146.531 104.599C146.599 104.57 146.661 104.527 146.713 104.474C146.766 104.42 146.807 104.356 146.836 104.285C146.864 104.215 146.879 104.139 146.879 104.063V104.063C146.879 103.987 146.864 103.912 146.836 103.841C146.807 103.771 146.766 103.707 146.713 103.653C146.661 103.599 146.599 103.556 146.531 103.527C146.462 103.498 146.389 103.483 146.315 103.483V103.483L146.315 103.483Z" fill="white"/>
<path d="M204.536 63.3407C208.427 63.3407 211.581 60.0938 211.581 56.0886C211.581 52.0834 208.427 48.8365 204.536 48.8365C200.645 48.8365 197.491 52.0834 197.491 56.0886C197.491 60.0938 200.645 63.3407 204.536 63.3407Z" fill="#FA8349"/>
<path d="M207.462 55.4796H205.066V53.0139C205.066 52.9377 205.052 52.8623 205.023 52.7919C204.995 52.7215 204.954 52.6575 204.901 52.6037C204.849 52.5498 204.787 52.507 204.718 52.4779C204.65 52.4487 204.577 52.4337 204.503 52.4337V52.4337C204.429 52.4337 204.355 52.4487 204.287 52.4779C204.219 52.507 204.157 52.5498 204.104 52.6037C204.052 52.6575 204.01 52.7215 203.982 52.7919C203.954 52.8623 203.939 52.9377 203.939 53.0139V55.4796H201.544C201.47 55.4796 201.397 55.4946 201.328 55.5238C201.26 55.553 201.198 55.5957 201.145 55.6496C201.093 55.7034 201.051 55.7674 201.023 55.8378C200.995 55.9082 200.98 55.9836 200.98 56.0598V56.0598C200.98 56.136 200.995 56.2115 201.023 56.2819C201.051 56.3523 201.093 56.4162 201.145 56.4701C201.198 56.524 201.26 56.5667 201.328 56.5959C201.397 56.625 201.47 56.64 201.544 56.64H203.939V59.1057C203.939 59.1819 203.954 59.2574 203.982 59.3278C204.01 59.3982 204.052 59.4621 204.104 59.516C204.157 59.5699 204.219 59.6126 204.287 59.6418C204.355 59.6709 204.429 59.6859 204.503 59.6859V59.6859C204.652 59.6859 204.796 59.6248 204.901 59.516C205.007 59.4072 205.066 59.2596 205.066 59.1057V56.64H207.462C207.536 56.64 207.609 56.625 207.677 56.5959C207.746 56.5667 207.808 56.524 207.86 56.4701C207.912 56.4162 207.954 56.3522 207.982 56.2818C208.011 56.2115 208.025 56.136 208.025 56.0598V56.0598C208.025 55.9836 208.011 55.9082 207.982 55.8378C207.954 55.7674 207.912 55.7034 207.86 55.6495C207.808 55.5957 207.746 55.5529 207.677 55.5238C207.609 55.4946 207.536 55.4796 207.462 55.4796V55.4796L207.462 55.4796Z" fill="white"/>
<path d="M83.1693 62.7048C87.0601 62.7048 90.2142 59.458 90.2142 55.4528C90.2142 51.4476 87.0601 48.2007 83.1693 48.2007C79.2785 48.2007 76.1243 51.4476 76.1243 55.4528C76.1243 59.458 79.2785 62.7048 83.1693 62.7048Z" fill="#FA8349"/>
<path d="M86.0947 54.8438H83.6994V52.3781C83.6994 52.3019 83.6848 52.2264 83.6565 52.156C83.6282 52.0856 83.5867 52.0217 83.5343 51.9678C83.482 51.9139 83.4199 51.8712 83.3515 51.842C83.2831 51.8129 83.2098 51.7979 83.1358 51.7979V51.7979C83.0618 51.7979 82.9885 51.8129 82.9201 51.842C82.8517 51.8712 82.7896 51.9139 82.7373 51.9678C82.6849 52.0217 82.6434 52.0856 82.6151 52.156C82.5868 52.2264 82.5722 52.3019 82.5722 52.3781V52.3781V54.8438H80.1769C80.1029 54.8438 80.0296 54.8588 79.9612 54.8879C79.8928 54.9171 79.8307 54.9598 79.7784 55.0137C79.726 55.0676 79.6845 55.1315 79.6562 55.2019C79.6279 55.2723 79.6133 55.3478 79.6133 55.424V55.424C79.6133 55.5778 79.6727 55.7254 79.7784 55.8342C79.8841 55.943 80.0274 56.0042 80.1769 56.0042H82.5722V58.4699C82.5722 58.5461 82.5867 58.6215 82.6151 58.6919C82.6434 58.7623 82.6849 58.8263 82.7373 58.8801C82.7896 58.934 82.8517 58.9768 82.9201 59.0059C82.9885 59.0351 83.0618 59.0501 83.1358 59.0501V59.0501C83.2098 59.0501 83.2831 59.0351 83.3515 59.0059C83.4199 58.9768 83.482 58.934 83.5343 58.8801C83.5867 58.8263 83.6282 58.7623 83.6565 58.6919C83.6849 58.6215 83.6994 58.5461 83.6994 58.4699V56.0042H86.0947C86.1687 56.0042 86.242 55.9891 86.3104 55.96C86.3788 55.9308 86.4409 55.8881 86.4932 55.8342C86.5456 55.7803 86.5871 55.7164 86.6154 55.646C86.6437 55.5756 86.6583 55.5001 86.6583 55.4239V55.4239C86.6583 55.2701 86.5989 55.1225 86.4932 55.0137C86.3875 54.9049 86.2442 54.8437 86.0947 54.8437V54.8437V54.8438Z" fill="white"/>
<path d="M135.913 45.4347C136.042 45.8349 136.083 46.2593 136.035 46.6779C135.987 47.0965 135.851 47.4992 135.635 47.8576C135.42 48.2159 135.13 48.5213 134.788 48.7522C134.445 48.983 134.057 49.1338 133.652 49.1938L130.395 72.083L125.051 69.3964L130.426 46.5486C130.373 45.841 130.574 45.1381 130.991 44.5731C131.408 44.008 132.012 43.6201 132.689 43.4828C133.365 43.3455 134.067 43.4683 134.661 43.8281C135.255 44.1878 135.701 44.7595 135.913 45.4347L135.913 45.4347Z" fill="#9E616A"/>
<path d="M97.0057 118.743C97.2435 118.4 97.4055 118.007 97.48 117.593C97.5545 117.178 97.5398 116.752 97.437 116.344C97.3342 115.936 97.1458 115.556 96.8849 115.231C96.6241 114.907 96.2972 114.644 95.9273 114.464L98.1249 90.1166L93.522 92.5453L92.0848 116.007C91.8309 116.667 91.8209 117.399 92.0568 118.066C92.2927 118.733 92.758 119.288 93.3646 119.625C93.9711 119.962 94.6768 120.059 95.3479 119.896C96.0189 119.734 96.6088 119.323 97.0056 118.743H97.0057Z" fill="#9E616A"/>
<path d="M100.15 106.429L119.903 105.647L121.042 84.5314H98.251L100.15 106.429Z" fill="#9E616A"/>
<path d="M96.4842 181L99.8597 181L101.465 167.598H96.4836L96.4842 181Z" fill="#9E616A"/>
<path d="M95.647 179.286L100.983 178.958V181.311L106.056 184.918C106.306 185.096 106.495 185.352 106.594 185.648C106.693 185.944 106.698 186.266 106.607 186.565C106.517 186.864 106.336 187.126 106.09 187.311C105.845 187.497 105.549 187.597 105.244 187.597H98.8917L97.7968 185.27L97.3693 187.597H94.9742L95.647 179.286Z" fill="#2F2E41"/>
<path d="M111.497 181L114.873 181L116.478 167.598H111.497L111.497 181Z" fill="#9E616A"/>
<path d="M99.8762 101.472C99.8762 101.472 93.9661 106.384 97.17 123.925C96.6821 123.985 97.2345 124.975 97.2345 124.975L97.6968 139.268L98.0541 140.906L96.8663 143.549L97.356 146.421L95.8465 172.486L101.423 173.229L106.759 146.161L107.776 143.118L108.795 140.451L108.245 137.606L108.696 133.191L111.773 118.304L112.526 144.124L111.475 146.589L112.06 149.294L110.757 150.731L110.242 174.888L116.188 175.175L121.108 150.822L120.726 147.715L121.381 145.417V140.05L122.502 137.516L124.946 123.704C124.946 123.704 125.683 112.909 120.304 100.205L99.8762 101.472Z" fill="#2F2E41"/>
<path d="M102.285 66.9824C102.285 66.9824 94.8201 68.5021 93.5339 75.0555C92.2477 81.6088 91.4202 96.4385 91.4202 96.4385L91.7018 98.5037L98.9226 100.227L103.531 79.4483L102.285 66.9824Z" fill="#3F3D56"/>
<path d="M119.32 69.1945C119.32 69.1945 120.077 68.103 124.314 67.9347C124.489 67.9278 124.273 67.5715 124.273 67.5715L126.311 57.3182L133.102 61.1888L131.956 71.938L120.796 85.0041L119.32 69.1945Z" fill="#3F3D56"/>
<path d="M115.087 99.7612C111.89 99.7614 107.078 99.3982 99.8329 98.291C99.3663 98.2186 98.9343 97.9944 98.6002 97.6513C98.2661 97.3082 98.0473 96.8642 97.9758 96.384C97.7391 96.1268 97.5852 95.8009 97.5349 95.4505C97.4845 95.1001 97.5402 94.7423 97.6943 94.4256L97.7011 94.4121L97.5369 94.2129C97.283 93.9059 97.1339 93.5217 97.1123 93.1191C97.0907 92.7166 97.1979 92.3178 97.4174 91.9839L95.1738 75.461C94.9461 73.8202 95.2946 72.1496 96.1566 70.7497C97.0187 69.3498 98.3377 68.3126 99.8764 67.8245L100.705 67.559L103.837 63.3416L103.899 63.3423L113.954 63.4801L117.217 67.7458L122.492 69.0262L122.506 69.1088L123.731 76.3933C124.368 80.1819 122.907 81.6724 121.042 85.0041L121.59 94.3614L121.838 94.8258C121.976 95.0828 122.022 95.3814 121.968 95.6698C121.915 95.9582 121.765 96.2183 121.545 96.405C121.711 96.8945 121.723 97.4257 121.578 97.9222L121.448 98.3611C121.449 98.3737 121.414 98.5521 121.136 98.7698C120.634 99.1624 119.192 99.7612 115.087 99.7612Z" fill="#3F3D56"/>
<path d="M110.66 179.286L115.996 178.958V181.311L121.069 184.918C121.319 185.096 121.508 185.352 121.607 185.648C121.707 185.944 121.711 186.266 121.621 186.565C121.53 186.864 121.349 187.126 121.104 187.311C120.858 187.497 120.562 187.597 120.257 187.597H113.905L112.81 185.27L112.382 187.597H109.987L110.66 179.286Z" fill="#2F2E41"/>
<path d="M116.264 54.1508C116.961 49.7269 114.043 45.5586 109.745 44.8407C105.448 44.1228 101.399 47.1272 100.701 51.5511C100.004 55.975 102.922 60.1432 107.22 60.8611C111.518 61.579 115.567 58.5747 116.264 54.1508Z" fill="#9E616A"/>
<path d="M113.092 44.9216C110.203 42.8761 107.659 42.5645 105.569 43.1447C105.298 42.7133 104.918 42.366 104.47 42.1401C102.84 37.9119 97.8788 35.3727 93.6216 36.6071C89.3369 37.8494 86.3805 42.7352 87.1867 47.2418C87.6864 50.0352 89.3942 52.4541 90.0811 55.2051C91.4108 60.5304 88.1671 66.6305 83.0927 68.3472C87.8972 69.3402 93.1858 66.3192 94.9094 61.597C95.7466 59.3033 95.7971 56.7991 95.9035 54.3513C95.9315 52.6617 96.1326 50.9799 96.5034 49.3338C96.6875 48.5953 96.9475 47.8791 97.2791 47.1974C98.0014 45.6989 99.2011 44.5008 100.678 43.8029C100.546 44.224 100.513 44.6714 100.581 45.1082C100.65 45.545 100.819 45.9587 101.074 46.3151C99.9471 47.7681 99.3337 49.3394 99.3337 50.2804C96.9931 54.6842 100.34 58.4669 104.618 60.8763C106.325 61.8424 108.295 62.196 110.218 61.8813L110.397 61.0948L110.64 61.8033L111.449 64.1784C112.383 64.6434 113.309 65.1532 114.226 65.7077C113.878 64.0223 113.596 62.3401 113.402 60.6953C113.133 58.4567 114.07 55.1239 114.745 53.0971C115.164 51.848 115.379 50.5361 115.382 49.2146V49.1569L116.039 51.3322L118.435 50.2804C117.989 47.6494 118.435 44.6626 113.092 44.9216Z" fill="#2F2E41"/>
<path d="M211.596 188H36.4036C36.3064 187.999 36.2134 187.959 36.1448 187.888C36.0763 187.817 36.0378 187.721 36.0378 187.621C36.0378 187.521 36.0763 187.425 36.1448 187.354C36.2134 187.284 36.3064 187.243 36.4036 187.243H211.596C211.694 187.243 211.787 187.284 211.855 187.354C211.924 187.425 211.962 187.521 211.962 187.621C211.962 187.721 211.924 187.817 211.855 187.888C211.787 187.959 211.694 187.999 211.596 188V188Z" fill="#CCCCCC"/>
<path d="M82.3639 112.297C86.2547 112.297 89.4089 109.05 89.4089 105.045C89.4089 101.04 86.2547 97.793 82.3639 97.793C78.4731 97.793 75.319 101.04 75.319 105.045C75.319 109.05 78.4731 112.297 82.3639 112.297Z" fill="#E6E6E6"/>
<path d="M188.362 100.877H163.653C162.889 100.876 162.157 100.564 161.617 100.008C161.077 99.4519 160.773 98.6983 160.773 97.9122V84.0584C160.773 83.2724 161.077 82.5188 161.617 81.963C162.157 81.4072 162.889 81.0946 163.653 81.0938H188.362C189.126 81.0946 189.858 81.4072 190.398 81.963C190.938 82.5188 191.242 83.2724 191.242 84.0584V97.9122C191.242 98.6983 190.938 99.4519 190.398 100.008C189.858 100.564 189.126 100.876 188.362 100.877V100.877Z" fill="#F2F2F2"/>
<path d="M188.726 95.2497C190.793 95.2497 192.468 93.5255 192.468 91.3985C192.468 89.2715 190.793 87.5472 188.726 87.5472C186.66 87.5472 184.985 89.2715 184.985 91.3985C184.985 93.5255 186.66 95.2497 188.726 95.2497Z" fill="#FA8349"/>
<path d="M190.28 91.0751H189.008V89.7656C189.008 89.7252 189 89.6851 188.985 89.6477C188.97 89.6103 188.948 89.5764 188.92 89.5478C188.892 89.5192 188.859 89.4965 188.823 89.481C188.787 89.4655 188.748 89.4575 188.709 89.4575C188.629 89.4575 188.553 89.49 188.497 89.5478C188.441 89.6055 188.409 89.6839 188.409 89.7656V91.0751H187.137C187.058 91.0751 186.982 91.1075 186.926 91.1653C186.87 91.2231 186.838 91.3015 186.838 91.3832V91.3832C186.838 91.4237 186.846 91.4637 186.861 91.5011C186.876 91.5385 186.898 91.5725 186.926 91.6011C186.953 91.6297 186.986 91.6524 187.023 91.6679C187.059 91.6833 187.098 91.6913 187.137 91.6913H188.409V93.0007C188.409 93.0412 188.417 93.0813 188.432 93.1186C188.447 93.156 188.469 93.19 188.497 93.2186C188.525 93.2472 188.558 93.2699 188.594 93.2854C188.63 93.3009 188.669 93.3088 188.709 93.3088V93.3088C188.788 93.3088 188.864 93.2764 188.92 93.2186C188.976 93.1608 189.008 93.0824 189.008 93.0007V91.6913H190.28C190.359 91.6913 190.436 91.6588 190.492 91.6011C190.548 91.5433 190.579 91.4649 190.579 91.3832V91.3832C190.579 91.3427 190.572 91.3027 190.557 91.2653C190.541 91.2279 190.519 91.1939 190.492 91.1653C190.464 91.1367 190.431 91.114 190.395 91.0985C190.358 91.083 190.319 91.0751 190.28 91.0751L190.28 91.0751Z" fill="white"/>
<path d="M198.429 96.9456H178.066C177.202 96.9446 176.373 96.5907 175.762 95.9616C175.151 95.3326 174.807 94.4796 174.806 93.5899V81.0773C174.807 80.9136 174.87 80.7567 174.983 80.641C175.095 80.5254 175.248 80.4604 175.407 80.4604C175.566 80.4604 175.718 80.5254 175.831 80.641C175.944 80.7567 176.007 80.9136 176.007 81.0773V84.4283L199.66 86.6417C200.133 86.6503 200.583 86.8494 200.914 87.1962C201.246 87.543 201.432 88.0098 201.432 88.4962C201.432 88.5344 201.429 88.5726 201.422 88.6101L200.23 95.154C200.214 95.6345 200.017 96.0898 199.681 96.4239C199.345 96.758 198.896 96.9451 198.429 96.9456V96.9456ZM176.007 85.6699V93.5899C176.008 94.1518 176.225 94.6904 176.611 95.0877C176.997 95.485 177.52 95.7085 178.066 95.7091H198.429C198.589 95.7089 198.741 95.6437 198.854 95.5278C198.966 95.4119 199.03 95.2548 199.03 95.0908C199.03 95.0526 199.033 95.0145 199.04 94.9769L200.229 88.4485C200.217 88.2933 200.149 88.1484 200.038 88.0427C199.927 87.937 199.782 87.8782 199.63 87.878C199.612 87.878 199.594 87.8772 199.576 87.8754L176.007 85.6699Z" fill="#FA8349"/>
<path d="M172.655 102.716C173.208 102.716 173.656 102.255 173.656 101.685C173.656 101.116 173.208 100.655 172.655 100.655C172.102 100.655 171.654 101.116 171.654 101.685C171.654 102.255 172.102 102.716 172.655 102.716Z" fill="#FA8349"/>
<path d="M197.629 102.716C198.181 102.716 198.63 102.255 198.63 101.685C198.63 101.116 198.181 100.655 197.629 100.655C197.076 100.655 196.628 101.116 196.628 101.685C196.628 102.255 197.076 102.716 197.629 102.716Z" fill="#FA8349"/>
<path d="M198.629 100.655H171.854C171.695 100.655 171.542 100.59 171.43 100.474C171.317 100.358 171.254 100.201 171.254 100.037C171.254 99.8729 171.317 99.7156 171.43 99.5997C171.542 99.4837 171.695 99.4186 171.854 99.4186H198.629C198.789 99.4186 198.942 99.4837 199.054 99.5997C199.167 99.7156 199.23 99.8729 199.23 100.037C199.23 100.201 199.167 100.358 199.054 100.474C198.942 100.59 198.789 100.655 198.629 100.655V100.655Z" fill="#FA8349"/>
<path d="M177.008 81.4894H171.803C171.644 81.489 171.492 81.4237 171.38 81.3078C171.267 81.1919 171.204 81.0349 171.204 80.8712C171.204 80.7074 171.267 80.5504 171.38 80.4345C171.492 80.3186 171.644 80.2533 171.803 80.2529H177.008C177.168 80.2533 177.32 80.3186 177.432 80.4345C177.545 80.5504 177.608 80.7074 177.608 80.8712C177.608 81.0349 177.545 81.1919 177.432 81.3078C177.32 81.4237 177.168 81.489 177.008 81.4894V81.4894Z" fill="#FA8349"/>
<path d="M181.184 100.34C181.041 100.34 180.902 100.287 180.793 100.191L176.845 96.6988C176.785 96.646 176.736 96.5815 176.7 96.509C176.665 96.4365 176.643 96.3575 176.637 96.2764C176.631 96.1953 176.641 96.1139 176.665 96.0366C176.69 95.9593 176.729 95.8878 176.78 95.8262C176.832 95.7645 176.895 95.7139 176.965 95.6772C177.036 95.6406 177.112 95.6186 177.191 95.6126C177.27 95.6065 177.349 95.6165 177.424 95.642C177.499 95.6674 177.568 95.7079 177.628 95.761L181.576 99.2531C181.669 99.3354 181.735 99.4451 181.766 99.5673C181.796 99.6896 181.79 99.8186 181.747 99.937C181.705 100.055 181.628 100.158 181.527 100.23C181.426 100.302 181.307 100.34 181.184 100.34V100.34Z" fill="#FA8349"/>
<path d="M182.016 96.5658C181.937 96.5659 181.859 96.5499 181.786 96.5188C181.713 96.4877 181.647 96.4422 181.591 96.3848C181.535 96.3274 181.491 96.2593 181.461 96.1843C181.431 96.1093 181.415 96.0289 181.415 95.9477V86.0233C181.415 85.8593 181.479 85.7021 181.591 85.5861C181.704 85.4702 181.857 85.405 182.016 85.405C182.175 85.405 182.328 85.4702 182.441 85.5861C182.553 85.7021 182.616 85.8593 182.616 86.0233V95.9476C182.616 96.0288 182.601 96.1092 182.571 96.1842C182.541 96.2592 182.496 96.3273 182.441 96.3848C182.385 96.4422 182.319 96.4877 182.246 96.5188C182.173 96.5498 182.095 96.5658 182.016 96.5658H182.016Z" fill="#FA8349"/>
<path d="M194.703 96.5658C194.624 96.5658 194.546 96.5498 194.473 96.5188C194.4 96.4877 194.334 96.4422 194.278 96.3848C194.222 96.3274 194.178 96.2592 194.148 96.1842C194.118 96.1092 194.102 96.0288 194.102 95.9476V86.8476C194.103 86.6838 194.166 86.5269 194.279 86.4113C194.391 86.2957 194.544 86.2307 194.703 86.2307C194.862 86.2307 195.014 86.2957 195.127 86.4113C195.24 86.5269 195.303 86.6838 195.303 86.8476V95.9476C195.303 96.0287 195.288 96.1091 195.258 96.1841C195.227 96.2592 195.183 96.3273 195.127 96.3847C195.072 96.4421 195.005 96.4877 194.933 96.5187C194.86 96.5498 194.782 96.5658 194.703 96.5658H194.703Z" fill="#FA8349"/>
</svg>
