<svg width="248" height="188" viewBox="0 0 248 188" fill="none" xmlns="http://www.w3.org/2000/svg">
<path d="M220.727 177.003C220.816 180.492 220.233 183.971 219 187.309C218.956 187.43 218.905 187.551 218.853 187.673H193.42C193.784 186.194 194.361 184.758 195.139 183.393C197.256 179.684 200.711 176.511 204.124 173.358C208.823 169.015 213.41 164.707 214.136 159.058C215.999 161.403 217.485 163.937 218.559 166.597C217.245 166.999 216.039 167.609 215.009 168.394C214.723 168.615 214.421 168.936 214.568 169.243C214.706 169.5 215.086 169.585 215.423 169.642C216.235 169.771 217.047 169.899 217.859 170.02C218.499 170.127 219.146 170.227 219.794 170.327C220.364 172.522 220.676 174.758 220.727 177.003V177.003Z" fill="#F2F2F2"/>
<path d="M242.091 174.692C238.013 176.739 235.422 179.906 233.305 183.45C231.464 183.797 229.763 184.534 228.373 185.59C228.079 185.811 227.777 186.132 227.932 186.439C228.062 186.695 228.45 186.781 228.787 186.838C229.591 186.967 230.411 187.095 231.215 187.216C231.137 187.366 231.059 187.523 230.982 187.673H204.029C205.252 186.31 206.607 185.032 208.08 183.85C208.4 183.586 208.728 183.336 209.065 183.079C212.501 180.516 216.446 178.46 220.727 177.003C227.472 174.675 234.848 173.877 242.091 174.692V174.692Z" fill="#F2F2F2"/>
<path d="M208.521 187.673H184.522C184.391 186.086 184.403 184.493 184.557 182.908C185.077 178.001 186.879 173.246 189.839 168.97C192.799 164.693 196.848 160.998 201.705 158.138C200.461 161.797 201.1 165.434 202.396 169.086C202.215 169.136 202.033 169.179 201.869 169.236C200.555 169.638 199.348 170.248 198.318 171.033C198.033 171.254 197.731 171.575 197.878 171.882C198.007 172.138 198.396 172.224 198.733 172.281C199.545 172.41 200.357 172.538 201.161 172.659C201.808 172.766 202.456 172.866 203.104 172.973C203.407 173.016 203.709 173.066 204.011 173.116C204.055 173.201 204.08 173.28 204.124 173.358C205.644 176.817 207.303 180.305 208.08 183.85C208.273 184.739 208.405 185.637 208.478 186.539C208.503 186.917 208.521 187.295 208.521 187.673Z" fill="#F2F2F2"/>
<path d="M24.882 13.4116C29.3677 13.4116 33.0042 10.4093 33.0042 6.70582C33.0042 3.0023 29.3677 0 24.882 0C20.3962 0 16.7598 3.0023 16.7598 6.70582C16.7598 10.4093 20.3962 13.4116 24.882 13.4116Z" fill="#FD6584"/>
<path d="M43.0613 3.53092C42.8317 2.91066 42.3874 2.35934 41.7832 1.94478C41.1791 1.53023 40.4413 1.27051 39.6607 1.19757C39.643 1.19552 39.6263 1.19823 39.6087 1.1973C39.586 1.19157 39.5628 1.18716 39.5394 1.18412C35.825 0.787774 31.5373 2.25448 29.9893 5.16182C29.6116 4.7366 29.1141 4.39369 28.54 4.16269C27.9658 3.9317 27.3322 3.81957 26.6938 3.836C25.8707 3.88128 25.0844 4.13491 24.4421 4.56234C23.7998 4.98978 23.3327 5.57026 23.1043 6.22475C23.08 6.30485 23.0872 6.38927 23.1249 6.46577C23.1626 6.54226 23.2288 6.60685 23.314 6.65018C23.5593 6.82184 23.8499 6.94364 24.1626 7.00582C24.8371 7.12381 25.5141 7.23189 26.1935 7.33007C27.5191 7.52161 28.8517 7.67646 30.1912 7.79463C32.9102 8.0352 35.6461 8.12058 38.3794 8.05016C39.2898 8.02674 40.1677 8.0018 41.0018 7.67009C41.6086 7.42264 42.127 7.04913 42.5061 6.58625C42.8633 6.14135 43.0981 5.63726 43.194 5.10941C43.2899 4.58156 43.2446 4.04277 43.0613 3.53092Z" fill="#F0F0F0"/>
<path d="M26.1799 12.472C25.9502 11.8517 25.506 11.3004 24.9018 10.8858C24.2977 10.4713 23.5599 10.2116 22.7793 10.1386C22.7616 10.1366 22.7449 10.1393 22.7273 10.1383C22.7046 10.1326 22.6814 10.1282 22.658 10.1252C18.9436 9.72881 14.6559 11.1955 13.1078 14.1028C12.7301 13.6776 12.2327 13.3347 11.6586 13.1037C11.0844 12.8727 10.4508 12.7606 9.81243 12.777C8.98928 12.8223 8.20302 13.076 7.56071 13.5034C6.91841 13.9308 6.45125 14.5113 6.22284 15.1658C6.19855 15.2459 6.20578 15.3303 6.24349 15.4068C6.2812 15.4833 6.34742 15.5479 6.43257 15.5912C6.67789 15.7629 6.96852 15.8847 7.28114 15.9469C7.9557 16.0648 8.63266 16.1729 9.31202 16.2711C10.6377 16.4626 11.9703 16.6175 13.3098 16.7357C16.0288 16.9762 18.7647 17.0616 21.498 16.9912C22.4084 16.9678 23.2863 16.9428 24.1204 16.6111C24.7272 16.3636 25.2456 15.9901 25.6247 15.5273C25.9819 15.0824 26.2167 14.5783 26.3126 14.0504C26.4085 13.5226 26.3632 12.9838 26.1799 12.472V12.472Z" fill="#F0F0F0"/>
<path d="M104.316 116.554C104.111 116.803 103.57 117.099 103.359 117.344L103.584 116.781L103.507 116.651L103.029 115.861L90.8482 95.5936L90.8436 95.5896L70.1946 61.2487V61.2448L69.7209 60.4587V60.4548L59.5018 43.4581L59.0187 42.6523C59.3822 42.6602 59.7457 42.6721 60.1094 42.6879L60.5974 43.4976L70.788 60.4548L70.7927 60.4587L71.2664 61.2448V61.2487L91.3888 94.7167V94.7206L91.8625 95.5067V95.5106L104.043 115.762L104.206 116.035L104.316 116.554Z" fill="#3F3D56"/>
<path d="M102.957 61.2487H11.798C12.0422 60.9841 12.2907 60.7194 12.5491 60.4587H102.206C102.465 60.7194 102.713 60.9841 102.957 61.2487Z" fill="#3F3D56"/>
<path d="M114.506 94.7206C114.478 94.9852 114.444 95.2499 114.401 95.5106H91.0491V94.7206H114.506Z" fill="#3F3D56"/>
<path d="M15.2666 57.8557V121.418C14.9365 121.13 14.6207 120.838 14.3098 120.545V58.7286C14.6207 58.4364 14.9365 58.1441 15.2666 57.8557Z" fill="#3F3D56"/>
<path d="M103.805 115.86H14.7883V116.65H103.805V115.86Z" fill="#3F3D56"/>
<path d="M103.728 116.554H103.838V116.423C103.804 116.469 103.767 116.512 103.728 116.554V116.554ZM102.991 61.1518C102.747 60.8871 102.498 60.6225 102.24 60.3618C97.1579 55.0977 90.7741 50.7895 83.5146 47.725C76.2552 44.6605 68.2872 42.9101 60.143 42.5909C59.7795 42.5751 59.4159 42.5633 59.0523 42.5554C58.5068 42.5436 57.9613 42.5357 57.4112 42.5357C49.4987 42.5322 41.6713 43.8832 34.4232 46.5034C27.1751 49.1235 20.6637 52.956 15.3002 57.7588C14.9701 58.0471 14.6543 58.3394 14.3433 58.6317C13.7357 59.1965 13.1488 59.7732 12.5827 60.3618C12.3243 60.6225 12.0757 60.8871 11.8316 61.1518C3.74642 69.8541 -0.423968 80.6059 0.0342275 91.5671C0.492423 102.528 5.55072 113.017 14.3433 121.238C14.6543 121.531 14.9701 121.823 15.3002 122.111C21.082 127.281 28.1869 131.321 36.0981 133.938C44.0092 136.556 52.5276 137.684 61.0333 137.241C69.5389 136.798 77.818 134.795 85.2681 131.377C92.7181 127.96 99.1517 123.215 104.101 117.486C104.311 117.241 104.522 116.996 104.727 116.747C110.033 110.401 113.367 103.075 114.435 95.4137C114.478 95.153 114.511 94.8883 114.54 94.6237C114.726 93.0832 114.821 91.5203 114.822 89.9351C114.837 79.5252 110.677 69.4041 102.991 61.1518V61.1518ZM113.473 95.4137C112.432 102.767 109.265 109.806 104.239 115.938C104.11 116.1 103.976 116.262 103.838 116.423C103.804 116.469 103.767 116.512 103.728 116.554C103.694 116.597 103.656 116.641 103.618 116.684C98.7372 122.441 92.3415 127.212 84.9101 130.637C77.4787 134.063 69.2043 136.056 60.7074 136.465C52.2105 136.875 43.7115 135.691 35.8476 133.003C27.9837 130.315 20.959 126.191 15.3002 120.942C14.9701 120.642 14.6496 120.342 14.3433 120.034C5.93053 111.85 1.20446 101.517 0.966417 90.7851C0.72837 80.0534 4.99299 69.5839 13.0372 61.1518C13.2909 60.8871 13.5444 60.6225 13.8074 60.3618C13.9798 60.184 14.1567 60.0102 14.3433 59.8364C14.6496 59.5283 14.9701 59.2281 15.3002 58.9279C20.5854 54.0181 27.0711 50.089 34.3298 47.3996C41.5884 44.7103 49.4551 43.3217 57.4112 43.3256C58.1241 43.3256 58.8322 43.3375 59.5354 43.3612C59.9038 43.3691 60.2675 43.3849 60.6309 43.4007C68.4171 43.7681 76.0262 45.4652 82.9773 48.3847C89.9285 51.3041 96.0704 55.3824 101.015 60.3618C101.278 60.6225 101.532 60.8871 101.785 61.1518C110.813 70.6295 115.041 82.6265 113.583 94.6237C113.55 94.8883 113.516 95.153 113.473 95.4137L113.473 95.4137ZM103.728 116.554H103.838V116.423C103.804 116.469 103.767 116.512 103.728 116.554H103.728Z" fill="#CCCCCC"/>
<path d="M50.1756 27.5053C50.1756 27.7225 50.1671 27.9379 50.15 28.1515C50.0544 29.3833 49.6775 30.5891 49.0391 31.7053C49.0342 31.7148 49.0284 31.7236 49.0234 31.7325C48.9937 31.7843 48.9632 31.836 48.9319 31.8871C48.742 32.2028 48.5314 32.5097 48.301 32.8064C47.2483 34.1684 45.8056 35.2953 44.1002 36.0877C42.3948 36.88 40.4792 37.3134 38.5228 37.3494L38.6408 42.9493L40.1789 42.2807L40.4535 42.7117L38.6523 43.4948L38.8725 53.8952L38.875 54.0341L37.6857 54.2526L37.6881 54.1131L38.0626 37.3501C36.4878 37.3315 34.9333 37.0547 33.4892 36.5359C32.045 36.0172 30.7401 35.2667 29.6502 34.3282C29.5751 34.2642 29.5009 34.1981 29.4283 34.1328L29.42 34.1252C28.5119 33.3076 27.7775 32.3693 27.2477 31.3498C27.2592 31.3607 27.2716 31.3709 27.2832 31.3818C22.3686 21.1853 25.2278 16.4584 32.9392 18.6908C32.9805 18.6738 33.0225 18.6574 33.0638 18.6404C35.7609 17.5678 38.8478 17.371 41.7124 18.089C44.5771 18.807 47.0105 20.3873 48.5302 22.5169C48.6028 22.6176 48.6729 22.7205 48.7405 22.824C49.6846 24.2611 50.1779 25.8705 50.1756 27.5053V27.5053Z" fill="#E5E5E5"/>
<path d="M64.2001 18.832C64.0563 20.7883 63.4432 22.7015 62.3964 24.4606C60.3822 27.826 56.8467 30.3777 52.4404 31.3296C52.433 31.3328 52.4247 31.3342 52.4165 31.3336C51.3078 31.5723 50.1698 31.7061 49.0244 31.7325H48.9287C48.8091 31.7364 48.6895 31.7364 48.5699 31.7364C48.4886 31.7364 48.4073 31.7364 48.3259 31.7325C44.2235 31.6803 40.3106 30.2981 37.4319 27.8845C34.5532 25.4708 32.9397 22.2193 32.9398 18.832V18.6898C32.9469 17.8662 33.0918 17.0474 33.3704 16.2566C33.3704 16.2526 33.3751 16.2487 33.3751 16.2447C33.8947 14.8705 34.8319 13.6289 36.0974 12.6384C39.2311 10.0789 44.1923 8.47123 48.5699 5.92746C58.1576 0.358019 65.2 5.89981 64.2001 18.832Z" fill="#E5E5E5"/>
<path opacity="0.2" d="M62.3964 24.4606C60.3822 27.826 56.8467 30.3777 52.4404 31.3296C52.433 31.3328 52.4247 31.3342 52.4164 31.3336C51.3107 31.5602 50.1778 31.6847 49.0387 31.7049H48.9287C48.7278 31.7088 48.5268 31.7088 48.3259 31.7049C44.2125 31.6201 40.3049 30.2016 37.4487 27.7562C34.5925 25.3109 33.0173 22.0353 33.0641 18.6384C33.0787 17.8384 33.1812 17.0412 33.3703 16.2566C33.3703 16.2526 33.3751 16.2487 33.3751 16.2447C33.8947 14.8705 34.8319 13.6289 36.0973 12.6384C35.6723 14.3122 35.6545 16.039 36.045 17.7185C36.4355 19.398 37.2264 20.9967 38.3718 22.4216C39.5172 23.8466 40.9942 25.0693 42.717 26.0188C44.4398 26.9683 46.374 27.6255 48.4072 27.9524C48.5555 27.9761 48.7038 27.9998 48.8522 28.0195C49.2827 28.0788 49.7133 28.1222 50.1487 28.1499C52.3916 28.3002 54.6474 28.0483 56.7614 27.4115C58.8754 26.7747 60.7976 25.7681 62.3964 24.4606V24.4606Z" fill="black"/>
<path d="M49.0996 39.7883L51.4594 38.7628L51.0994 38.198L49.0838 39.074L48.9322 31.8873V31.8864L48.9286 31.7342V31.7071L48.8504 28.0202L48.7407 22.8241L48.6566 18.8317H48.6126L48.5303 22.5167V22.5176L48.4091 27.9538L48.3254 31.7047L48.3251 31.736L48.3009 32.8062L47.8225 54.2742L47.8193 54.416L49.4157 54.786L49.4128 54.643L49.0996 39.7883Z" fill="#3F3D56"/>
<path d="M106.039 65.2109C96.1168 63.5695 86.1634 62.0806 76.089 61.1694C66.5366 60.2418 56.9037 60.0118 47.3023 60.4821C38.6312 60.965 29.8858 62.0974 21.7399 64.6788C15.4627 66.668 8.77166 69.6776 5.38102 74.6967C2.11258 79.5349 3.38738 85.1142 6.94629 89.5781C11.2284 94.9491 17.9057 98.6296 24.848 101.32C32.7523 104.382 41.2068 106.368 49.672 108.056C53.9654 108.913 58.282 109.687 62.5989 110.457C63.4995 110.618 63.8843 109.475 62.9805 109.314C54.2749 107.761 45.5442 106.203 37.0549 103.955C29.1989 101.874 21.1594 99.2091 14.7261 94.8405C9.52149 91.3062 4.573 86.144 4.8802 80.2747C5.18989 74.3579 11.2028 70.2267 17.0962 67.6839C24.4614 64.5061 32.8292 62.9581 41.0288 62.1491C50.4174 61.2854 59.8856 61.179 69.2992 61.8316C81.8802 62.622 94.2752 64.4554 106.623 66.509" fill="black"/>
<path d="M59.4587 74.6339C63.634 76.3569 66.1759 78.6324 66.1759 81.1283C66.1759 86.505 54.3917 90.8637 39.8554 90.8637C33.5354 90.8637 27.7372 90.0391 23.2 88.6659C28.0191 90.6546 35.0146 91.9067 42.8033 91.9067C57.3396 91.9067 69.1238 87.5481 69.1238 82.1714C69.1239 79.1324 65.3573 76.4192 59.4587 74.6339Z" fill="#F1F1F1"/>
<path d="M68.746 78.3271C73.4574 80.2713 76.3258 82.839 76.3258 85.6554C76.3258 91.7223 63.0287 96.6406 46.6261 96.6406C39.4947 96.6406 32.9522 95.7101 27.8325 94.1606C33.2703 96.4046 41.1639 97.8176 49.9524 97.8176C66.355 97.8176 79.6521 92.8993 79.6521 86.8324C79.6521 83.4031 75.402 80.3417 68.746 78.3271Z" fill="#F1F1F1"/>
<path d="M55.9044 76.2607C58.846 77.4746 60.6369 79.0778 60.6369 80.8362C60.6369 84.6243 52.3346 87.695 42.0934 87.695C38.1035 87.7377 34.1343 87.2139 30.3593 86.1466C33.7545 87.5477 38.683 88.4299 44.1703 88.4299C54.4115 88.4299 62.7138 85.3591 62.7138 81.5711C62.7138 79.43 60.0602 77.5185 55.9044 76.2607Z" fill="#F1F1F1"/>
<path d="M40.2403 83.5149C34.1915 83.5149 31.2498 82.1449 29.8472 80.9957C29.5913 80.7847 29.417 80.5158 29.3463 80.223C29.2757 79.9302 29.3118 79.6266 29.4503 79.3508C29.5887 79.0749 29.8232 78.8392 30.124 78.6735C30.4248 78.5078 30.7784 78.4195 31.1401 78.4198H52.2424C52.5297 78.4196 52.8099 78.4934 53.0441 78.6309C53.2782 78.7683 53.4546 78.9627 53.5487 79.1868C53.6428 79.4109 53.6499 79.6536 53.5691 79.8812C53.4882 80.1088 53.3235 80.31 53.0977 80.4567C50.948 81.8519 46.9725 83.5149 40.2403 83.5149Z" fill="#3F3D56"/>
<path d="M44.6221 65.9817C42.977 64.9499 40.9121 64.4835 38.86 64.6804C42.5032 65.4231 39.6282 69.5801 42.9461 73.8912C44.7543 76.2407 41.2378 77.3926 37.8879 77.7079C39.6808 78.0652 41.5681 77.902 43.2323 77.2457C44.8966 76.5894 46.2365 75.48 47.0266 74.1041C47.8168 72.7282 48.0091 71.1696 47.5712 69.6904C47.1333 68.2112 46.0919 66.9016 44.6221 65.9817V65.9817Z" fill="#3F3D56"/>
<path d="M40.8879 63.8147H40.1109V79.0841H40.8879V63.8147Z" fill="#3F3D56"/>
<path d="M115.66 68.1002C113.597 66.9003 111.267 66.0478 108.804 65.5913C106.341 65.1348 103.794 65.0832 101.307 65.4395C98.8203 65.7958 96.4428 66.5531 94.3104 67.668C92.178 68.7829 90.3325 70.2337 88.8792 71.9374C82.7673 79.1028 76.6344 97.8922 80.9636 108.777C93.8765 97.5159 113.715 96.3458 120.308 90.211C127.353 83.6557 124.339 73.1463 115.66 68.1002Z" fill="#FA8349"/>
<path d="M104.332 84.3256C107.794 84.3256 110.6 82.0086 110.6 79.1504C110.6 76.2922 107.794 73.9752 104.332 73.9752C100.87 73.9752 98.0638 76.2922 98.0638 79.1504C98.0638 82.0086 100.87 84.3256 104.332 84.3256Z" fill="white"/>
<path d="M75.6647 114.413C77.9321 114.413 79.7703 112.895 79.7703 111.023C79.7703 109.151 77.9321 107.634 75.6647 107.634C73.3972 107.634 71.5591 109.151 71.5591 111.023C71.5591 112.895 73.3972 114.413 75.6647 114.413Z" fill="#FA8349"/>
<path opacity="0.2" d="M111.038 77.9563C111.454 78.5432 111.725 79.1918 111.836 79.8652C111.947 80.5385 111.897 81.2234 111.688 81.8807C111.479 82.538 111.115 83.1548 110.617 83.696C110.119 84.2372 109.497 84.6921 108.786 85.0348C108.075 85.3774 107.29 85.6012 106.474 85.6932C105.658 85.7852 104.829 85.7436 104.033 85.5709C103.237 85.3983 102.489 85.0978 101.834 84.6867C101.178 84.2756 100.627 83.762 100.212 83.1751C101.331 83.9855 102.763 84.4407 104.251 84.4592C105.739 84.4777 107.187 84.0584 108.335 83.2762C109.483 82.494 110.256 81.4001 110.516 80.1902C110.777 78.9803 110.507 77.7334 109.755 76.6727C110.264 77.0406 110.697 77.4741 111.038 77.9563V77.9563Z" fill="#231F20"/>
<path opacity="0.2" d="M120.32 90.2353C113.726 96.3701 93.8883 97.5403 80.9754 108.801C80.5723 107.771 80.2621 106.718 80.0472 105.651C92.9537 95.4134 111.687 94.1196 118.058 88.1923C123.759 82.8873 122.872 74.9929 117.726 69.4999C124.783 74.9009 126.776 84.2281 120.32 90.2353Z" fill="#231F20"/>
<path d="M187.917 183.847H183.238L181.013 168.947H187.918L187.917 183.847Z" fill="#FFB6B6"/>
<path d="M189.111 187.592L174.024 187.592V187.434C174.024 186.148 174.643 184.915 175.744 184.006C176.845 183.097 178.339 182.586 179.896 182.586H179.896L182.652 180.86L187.794 182.586L189.111 182.586L189.111 187.592Z" fill="#2F2E41"/>
<path d="M169.785 181.413L165.221 182.264L159.074 168.134L165.811 166.879L169.785 181.413Z" fill="#FFB6B6"/>
<path d="M171.948 184.849L157.232 187.592L157.19 187.438C156.847 186.184 157.121 184.869 157.953 183.782C158.785 182.694 160.105 181.925 161.624 181.641L161.625 181.641L163.852 179.456L169.328 180.205L170.613 179.966L171.948 184.849Z" fill="#2F2E41"/>
<path d="M193.844 92.7548C196.037 98.2173 195.805 104.147 193.316 110.511L192.252 146.341C194.011 147.939 195.115 154.456 192.405 159.122C188.787 165.354 191.28 173.971 188.722 178.106H181.303L179.48 161.274L177.874 159.376L177.63 144.195C176.644 142.269 175.503 140.358 177.507 138.127L177.453 135.49L177.168 121.434L165.979 134.942C165.662 137.999 163.769 139.601 161.263 140.636L164.728 153.263C170.788 157.546 169.306 164.174 169.406 170.31L171.393 177.551L162.262 178.225L158.233 168.406L153.702 162.355L145.823 138.164L151.318 127.635L153.564 123.331L166.106 99.2978L193.844 92.7548Z" fill="#2F2E41"/>
<path d="M116.328 73.2732C116.694 73.5747 117.135 73.8063 117.621 73.9517C118.107 74.0972 118.626 74.1528 119.141 74.1149C119.655 74.0769 120.154 73.9462 120.601 73.7319C121.048 73.5177 121.433 73.2251 121.728 72.8749L133.824 75.682L131.838 70.5467L120.656 68.6683C119.911 68.2978 119.026 68.1659 118.171 68.2977C117.316 68.4296 116.548 68.8159 116.015 69.3835C115.481 69.9511 115.218 70.6606 115.276 71.3775C115.334 72.0944 115.708 72.7689 116.328 73.2732V73.2732Z" fill="#FFB8B8"/>
<path d="M126.221 69.1255L138.027 69.0541C141.211 68.3192 144.567 68.2564 147.788 68.8715L148.415 68.9912L153.342 68.5298C156.279 63.6822 161.729 59.2994 169.046 55.2619C170.15 54.5277 171.429 53.9947 172.8 53.6981C174.171 53.4015 175.602 53.348 177 53.5411C178.397 53.7341 179.73 54.1694 180.909 54.8182C182.088 55.467 183.088 56.3147 183.842 57.3054V57.3054C185.203 59.0989 185.682 61.2541 185.181 63.3298C184.68 65.4055 183.237 67.2446 181.147 68.4705L158.852 79.293C156.896 80.2426 154.674 80.7553 152.405 80.7808V80.7808L152.351 80.804L139.632 76.8698L133.09 76.1824L124.218 74.0538L126.221 69.1255Z" fill="#FA8349"/>
<path d="M173.587 46.3794C179.739 46.3794 184.726 42.262 184.726 37.1829C184.726 32.1039 179.739 27.9865 173.587 27.9865C167.435 27.9865 162.448 32.1039 162.448 37.1829C162.448 42.262 167.435 46.3794 173.587 46.3794Z" fill="#FFB8B8"/>
<path d="M183.99 43.0155C184.816 42.0429 185.401 40.4852 185.747 39.3467C186.21 37.8476 186.286 36.2849 185.97 34.76C185.655 33.2351 184.955 31.7819 183.915 30.4946C183.532 29.97 182.982 29.5417 182.326 29.2559C181.652 29.0075 180.763 29.0667 180.293 29.5366C180.292 29.1243 180.188 28.7165 179.988 28.3385C179.789 27.9605 179.497 27.6203 179.132 27.3389C178.396 26.7793 177.512 26.369 176.55 26.1405C174.697 25.6741 172.726 25.6305 170.846 26.0143C168.965 26.3981 167.246 27.1951 165.87 28.3207C165.332 28.7722 165.524 26.5158 164.927 26.9133C164.349 27.3402 163.591 27.5634 162.816 27.535C162.054 27.468 160.651 29.7115 160.643 29.0784C159.841 29.7421 159.487 32.5411 159.738 33.4556C159.989 34.37 163.723 33.9659 164.793 34.2793C165.502 34.4869 166.272 34.4939 167.006 34.6291C168.312 34.9076 169.449 35.5711 170.202 36.4943C170.956 37.4176 171.274 38.5366 171.097 39.6402C171.566 39.1187 172.135 38.6633 172.781 38.2915C173.106 38.1079 173.48 37.9911 173.871 37.9508C174.262 37.9105 174.658 37.9479 175.028 38.0598C175.362 38.2077 175.656 38.4104 175.892 38.6555C176.127 38.9006 176.3 39.1828 176.398 39.4849C176.641 40.0762 176.736 40.7039 176.983 41.2939C177.71 43.0252 178.085 44.8425 180.11 45.253C181.708 45.5769 182.863 44.3435 183.99 43.0155Z" fill="#2F2E41"/>
<path d="M194.794 90.9317L193.571 88.9122C192.074 81.2543 190.595 74.1117 192.604 67.687C192.73 62.0783 190.631 56.8092 184.801 53.9319L182.171 52.6333L180.839 49.8453L168.58 50.0926L168.544 53.7473L164.154 59.5287V59.5525L164.428 91.0121L165.64 94.2588L163.811 98.0356L164.782 100.445L188.95 97.2552L191.76 96.8829C192.084 96.7971 192.398 96.6844 192.694 96.5463C193.703 96.084 194.493 95.3547 194.938 94.4762C194.964 94.4256 194.985 94.3779 195.007 94.3273C195.196 93.9172 195.306 93.4849 195.332 93.0465C195.375 92.3151 195.19 91.5868 194.794 90.9317V90.9317Z" fill="#FA8349"/>
<path opacity="0.2" d="M195.332 93.0464C195.306 93.4848 195.196 93.9171 195.007 94.3272L192.694 96.5462C192.398 96.6843 192.084 96.7971 191.76 96.8828L188.95 97.2551L193.015 90.9435L184.079 74.7908L195.332 93.0464Z" fill="black"/>
<path d="M205.058 111.729C204.609 111.477 204.233 111.146 203.956 110.76C203.679 110.375 203.508 109.944 203.454 109.498C203.401 109.051 203.466 108.601 203.646 108.178C203.827 107.755 204.117 107.37 204.497 107.049L198.615 97.2925L205.424 97.9771L209.966 107.138C210.575 107.7 210.914 108.428 210.917 109.183C210.92 109.938 210.587 110.667 209.982 111.233C209.377 111.799 208.542 112.162 207.634 112.254C206.727 112.345 205.81 112.159 205.058 111.729V111.729Z" fill="#FFB8B8"/>
<path d="M181.213 78.1581L185.675 77.6493C185.675 77.6493 186.106 83.2034 188.241 84.0452C190.375 84.8869 189.655 85.0255 189.907 85.9165C190.159 86.8076 191.298 88.1541 192.988 88.7681C194.679 89.3821 202.369 104.821 202.369 104.821L208.845 103.575C208.246 102.234 207.851 100.837 207.67 99.4164C207.443 97.268 204.494 92.1987 203.523 91.4462C202.551 90.6937 202.935 89.3671 202.432 87.585C201.929 85.8029 202.278 87.4553 201.439 84.4851C200.6 81.515 191.168 63.7147 190.773 60.9723C190.378 58.2298 185.749 56.6156 185.749 56.6156L182.152 57.3082L181.213 78.1581Z" fill="#FA8349"/>
<path d="M107.109 188H247.55C247.669 188 247.784 187.961 247.868 187.891C247.953 187.821 248 187.727 248 187.629C248 187.53 247.953 187.436 247.868 187.366C247.784 187.296 247.669 187.257 247.55 187.257H107.109C106.99 187.257 106.876 187.296 106.791 187.366C106.707 187.436 106.659 187.53 106.659 187.629C106.659 187.727 106.707 187.821 106.791 187.891C106.876 187.961 106.99 188 107.109 188V188V188Z" fill="#CCCCCC"/>
</svg>
