<svg width="248" height="188" viewBox="0 0 248 188" fill="none" xmlns="http://www.w3.org/2000/svg">
<path d="M124.78 0H14.148C10.397 0.00421683 6.80088 1.49378 4.14852 4.14188C1.49616 6.78998 0.00421426 10.3804 0 14.1253V143.822C0.00421504 147.567 1.49616 151.157 4.14852 153.805C6.80088 156.453 10.397 157.943 14.148 157.947H124.78C128.531 157.943 132.127 156.453 134.78 153.805C137.432 151.157 138.924 147.567 138.928 143.822V14.1253C138.924 10.3804 137.432 6.78998 134.78 4.14188C132.127 1.49378 128.531 0.00421683 124.78 0V0Z" fill="#F2F2F2"/>
<path d="M124.78 4.06641H14.148C11.4769 4.0694 8.91595 5.13013 7.02714 7.01591C5.13833 8.90168 4.07587 11.4585 4.07288 14.1254V143.822C4.07588 146.489 5.13833 149.045 7.02714 150.931C8.91595 152.817 11.4769 153.878 14.148 153.881H124.78C127.451 153.878 130.012 152.817 131.901 150.931C133.79 149.045 134.852 146.488 134.855 143.822V14.1254C134.852 11.4585 133.79 8.90172 131.901 7.01595C130.012 5.13018 127.451 4.06943 124.78 4.06641V4.06641Z" fill="white"/>
<path d="M108.13 41.7786H52.1841C51.5593 41.7786 50.96 41.5308 50.5182 41.0896C50.0763 40.6485 49.8281 40.0502 49.8281 39.4263C49.8281 38.8025 50.0763 38.2042 50.5182 37.7631C50.96 37.3219 51.5593 37.0741 52.1841 37.0741H108.13C108.439 37.0741 108.746 37.1349 109.032 37.2532C109.317 37.3714 109.577 37.5446 109.796 37.7631C110.015 37.9815 110.188 38.2408 110.307 38.5262C110.425 38.8116 110.486 39.1174 110.486 39.4263C110.486 39.7352 110.425 40.0411 110.307 40.3265C110.188 40.6119 110.015 40.8712 109.796 41.0896C109.577 41.3081 109.317 41.4813 109.032 41.5995C108.746 41.7177 108.439 41.7786 108.13 41.7786V41.7786Z" fill="#F2F2F2"/>
<path d="M117.849 49.7174H52.1841C51.5597 49.7167 50.9611 49.4686 50.5199 49.0275C50.0786 48.5865 49.8307 47.9886 49.8307 47.3652C49.8307 46.7418 50.0786 46.1439 50.5199 45.7028C50.9611 45.2618 51.5597 45.0136 52.1841 45.0129H117.849C118.473 45.0136 119.072 45.2618 119.513 45.7028C119.954 46.1439 120.202 46.7418 120.202 47.3652C120.202 47.9886 119.954 48.5865 119.513 49.0275C119.072 49.4686 118.473 49.7167 117.849 49.7174V49.7174Z" fill="#F2F2F2"/>
<path d="M108.13 77.3564H52.1841C51.5593 77.3564 50.96 77.1085 50.5182 76.6674C50.0763 76.2263 49.8281 75.628 49.8281 75.0041C49.8281 74.3803 50.0763 73.7819 50.5182 73.3408C50.96 72.8997 51.5593 72.6519 52.1841 72.6519H108.13C108.439 72.6519 108.746 72.7127 109.032 72.8309C109.317 72.9491 109.577 73.1224 109.796 73.3408C110.015 73.5592 110.188 73.8185 110.307 74.1039C110.425 74.3893 110.486 74.6952 110.486 75.0041C110.486 75.313 110.425 75.6189 110.307 75.9043C110.188 76.1897 110.015 76.449 109.796 76.6674C109.577 76.8858 109.317 77.0591 109.032 77.1773C108.746 77.2955 108.439 77.3564 108.13 77.3564V77.3564Z" fill="#F2F2F2"/>
<path d="M117.849 85.2952H52.1841C51.5597 85.2945 50.9611 85.0464 50.5199 84.6053C50.0786 84.1643 49.8307 83.5664 49.8307 82.943C49.8307 82.3196 50.0786 81.7216 50.5199 81.2806C50.9611 80.8395 51.5597 80.5914 52.1841 80.5907H117.849C118.473 80.5914 119.072 80.8395 119.513 81.2806C119.954 81.7216 120.202 82.3196 120.202 82.943C120.202 83.5664 119.954 84.1643 119.513 84.6053C119.072 85.0464 118.473 85.2945 117.849 85.2952V85.2952Z" fill="#F2F2F2"/>
<path d="M108.13 112.934H52.1841C51.5593 112.934 50.96 112.686 50.5182 112.245C50.0763 111.804 49.8281 111.206 49.8281 110.582C49.8281 109.958 50.0763 109.36 50.5182 108.918C50.96 108.477 51.5593 108.229 52.1841 108.229H108.13C108.44 108.229 108.746 108.29 109.032 108.408C109.319 108.526 109.579 108.699 109.798 108.918C110.017 109.136 110.191 109.395 110.309 109.681C110.428 109.967 110.489 110.273 110.489 110.582C110.489 110.891 110.428 111.197 110.309 111.483C110.191 111.768 110.017 112.028 109.798 112.246C109.579 112.464 109.319 112.638 109.032 112.756C108.746 112.874 108.44 112.934 108.13 112.934V112.934Z" fill="#F2F2F2"/>
<path d="M117.849 120.873H52.1841C51.5597 120.872 50.9611 120.624 50.5199 120.183C50.0786 119.742 49.8307 119.144 49.8307 118.521C49.8307 117.897 50.0786 117.299 50.5199 116.858C50.9611 116.417 51.5597 116.169 52.1841 116.168H117.849C118.473 116.169 119.072 116.417 119.513 116.858C119.954 117.299 120.202 117.897 120.202 118.521C120.202 119.144 119.954 119.742 119.513 120.183C119.072 120.624 118.473 120.872 117.849 120.873Z" fill="#F2F2F2"/>
<path d="M39.6519 53.3213H19.8532C19.5537 53.321 19.2665 53.2021 19.0547 52.9906C18.8429 52.7792 18.7238 52.4925 18.7235 52.1934V34.5981C18.7238 34.2991 18.8429 34.0124 19.0547 33.8009C19.2665 33.5895 19.5537 33.4705 19.8532 33.4702H39.6519C39.9514 33.4705 40.2386 33.5895 40.4504 33.8009C40.6622 34.0124 40.7813 34.2991 40.7816 34.5981V52.1934C40.7813 52.4925 40.6622 52.7792 40.4504 52.9906C40.2386 53.2021 39.9514 53.321 39.6519 53.3213Z" fill="#E6E6E6"/>
<path d="M39.6519 88.8991H19.8532C19.5537 88.8987 19.2665 88.7798 19.0547 88.5683C18.8429 88.3569 18.7238 88.0702 18.7235 87.7712V70.1759C18.7238 69.8768 18.8429 69.5901 19.0547 69.3787C19.2665 69.1672 19.5537 69.0483 19.8532 69.048H39.6519C39.9514 69.0483 40.2386 69.1672 40.4504 69.3787C40.6622 69.5901 40.7813 69.8768 40.7816 70.1759V87.7712C40.7813 88.0702 40.6622 88.3569 40.4504 88.5683C40.2386 88.7798 39.9514 88.8987 39.6519 88.8991V88.8991Z" fill="#E6E6E6"/>
<path d="M39.6519 124.477H19.8532C19.5537 124.476 19.2665 124.357 19.0547 124.146C18.8429 123.935 18.7238 123.648 18.7235 123.349V105.754C18.7238 105.454 18.8429 105.168 19.0547 104.956C19.2665 104.745 19.5537 104.626 19.8532 104.626H39.6519C39.9514 104.626 40.2386 104.745 40.4504 104.956C40.6622 105.168 40.7813 105.454 40.7816 105.754V123.349C40.7813 123.648 40.6622 123.935 40.4504 124.146C40.2386 124.357 39.9514 124.476 39.6519 124.477Z" fill="#E6E6E6"/>
<path d="M222.24 122.662L223.117 114.999L227.518 76.5758L228.396 68.9126C228.818 65.1914 227.744 61.455 225.41 58.5232C223.076 55.5914 219.673 53.7036 215.947 53.2739L116.091 41.874C112.364 41.4527 108.621 42.5247 105.685 44.8548C102.748 47.1849 100.857 50.5828 100.427 54.3031L100.425 54.3229L94.2732 108.033L94.271 108.053C93.849 111.774 94.9228 115.51 97.2566 118.442C99.5905 121.374 102.994 123.262 106.72 123.691L206.576 135.091C210.303 135.513 214.045 134.441 216.982 132.11C219.919 129.78 221.809 126.382 222.24 122.662V122.662Z" fill="#E6E6E6"/>
<path d="M218.193 122.2L219.233 113.124L223.31 77.527L224.349 68.4506C224.65 65.8006 223.885 63.1398 222.223 61.052C220.561 58.9642 218.137 57.6199 215.484 57.3139L115.628 45.9139C112.974 45.6139 110.309 46.3773 108.218 48.0367C106.127 49.696 104.78 52.1157 104.474 54.765L104.471 54.7848L98.3198 108.495L98.3175 108.515C98.0171 111.165 98.7817 113.825 100.444 115.913C102.106 118.001 104.529 119.345 107.183 119.651L207.039 131.051C209.693 131.351 212.358 130.588 214.449 128.929C216.54 127.269 217.887 124.85 218.193 122.2V122.2Z" fill="white"/>
<path d="M201.848 73.5004L146.265 67.1548C145.957 67.1199 145.659 67.025 145.388 66.8752C145.118 66.7254 144.879 66.5238 144.686 66.282C144.493 66.0401 144.35 65.7626 144.265 65.4655C144.18 65.1683 144.154 64.8573 144.189 64.5502C144.224 64.2431 144.32 63.946 144.47 63.6757C144.62 63.4055 144.823 63.1674 145.065 62.9752C145.307 62.783 145.585 62.6404 145.883 62.5556C146.181 62.4707 146.492 62.4453 146.8 62.4807L202.384 68.8264C203.004 68.8979 203.571 69.2123 203.959 69.7005C204.347 70.1888 204.525 70.811 204.454 71.4304C204.384 72.0498 204.069 72.6157 203.581 73.0039C203.092 73.392 202.469 73.5706 201.848 73.5004Z" fill="#E6E6E6"/>
<path d="M210.601 82.4902L145.361 75.0422C145.054 75.0074 144.756 74.9123 144.485 74.7626C144.214 74.6128 143.976 74.4112 143.783 74.1693C143.59 73.9275 143.447 73.65 143.362 73.3529C143.277 73.0558 143.251 72.7448 143.286 72.4377C143.321 72.1306 143.417 71.8334 143.567 71.5632C143.717 71.293 143.919 71.0549 144.162 70.8627C144.404 70.6705 144.682 70.5279 144.98 70.4431C145.278 70.3582 145.589 70.3327 145.897 70.3681L211.136 77.8162C211.443 77.8513 211.741 77.9465 212.011 78.0963C212.282 78.2462 212.52 78.4478 212.713 78.6896C212.905 78.9314 213.048 79.2088 213.133 79.5057C213.219 79.8027 213.244 80.1135 213.209 80.4204C213.174 80.7273 213.079 81.0243 212.929 81.2944C212.778 81.5645 212.577 81.8025 212.334 81.9947C212.092 82.1869 211.814 82.3295 211.517 82.4146C211.219 82.4996 210.908 82.5253 210.601 82.4902Z" fill="#E6E6E6"/>
<path d="M208.782 98.2214L112.599 87.2408C111.978 87.1693 111.412 86.8549 111.023 86.3666C110.635 85.8784 110.457 85.2562 110.528 84.6368C110.599 84.0174 110.913 83.4514 111.402 83.0633C111.89 82.6751 112.513 82.4965 113.134 82.5667L209.317 93.5474C209.625 93.5822 209.922 93.6772 210.193 93.827C210.464 93.9768 210.703 94.1784 210.895 94.4202C211.088 94.6621 211.231 94.9396 211.316 95.2367C211.402 95.5338 211.428 95.8448 211.392 96.1519C211.357 96.459 211.262 96.7561 211.111 97.0264C210.961 97.2966 210.759 97.5346 210.517 97.7268C210.274 97.919 209.996 98.0616 209.698 98.1465C209.401 98.2314 209.089 98.2568 208.782 98.2214H208.782Z" fill="#E6E6E6"/>
<path d="M208.187 106.144L111.695 95.1282C111.075 95.0568 110.508 94.7424 110.12 94.2541C109.732 93.7658 109.554 93.1436 109.625 92.5242C109.695 91.9048 110.01 91.3389 110.498 90.9507C110.987 90.5626 111.61 90.384 112.231 90.4542L208.723 101.47C209.343 101.542 209.91 101.856 210.298 102.344C210.686 102.833 210.864 103.455 210.794 104.074C210.723 104.694 210.408 105.26 209.92 105.648C209.431 106.036 208.808 106.214 208.187 106.144V106.144Z" fill="#E6E6E6"/>
<path d="M207.012 113.677L110.829 102.696C110.521 102.661 110.223 102.566 109.952 102.417C109.681 102.267 109.443 102.065 109.25 101.823C109.057 101.582 108.914 101.304 108.829 101.007C108.744 100.71 108.718 100.399 108.753 100.092C108.788 99.7846 108.884 99.4875 109.034 99.2172C109.184 98.947 109.386 98.7089 109.629 98.5167C109.871 98.3245 110.149 98.1819 110.447 98.0971C110.745 98.0122 111.056 97.9868 111.364 98.0222L207.547 109.003C208.167 109.074 208.734 109.389 209.122 109.877C209.51 110.365 209.689 110.987 209.618 111.607C209.547 112.226 209.232 112.792 208.744 113.18C208.255 113.569 207.632 113.747 207.012 113.677V113.677Z" fill="#E6E6E6"/>
<path d="M206.417 121.6L109.925 110.584C109.305 110.512 108.738 110.198 108.35 109.71C107.962 109.221 107.783 108.599 107.854 107.98C107.925 107.36 108.24 106.794 108.728 106.406C109.217 106.018 109.84 105.84 110.46 105.91L206.953 116.926C207.26 116.961 207.558 117.056 207.829 117.205C208.1 117.355 208.338 117.557 208.531 117.799C208.724 118.04 208.867 118.318 208.952 118.615C209.038 118.912 209.063 119.223 209.028 119.53C208.993 119.837 208.898 120.134 208.747 120.405C208.597 120.675 208.395 120.913 208.152 121.105C207.91 121.297 207.632 121.44 207.334 121.525C207.036 121.61 206.725 121.635 206.417 121.6V121.6Z" fill="#E6E6E6"/>
<path d="M132.5 77.2013L112.83 74.9556C112.532 74.9213 112.26 74.7705 112.074 74.5364C111.888 74.3023 111.802 74.004 111.836 73.7068L113.838 56.2255C113.872 55.9284 114.023 55.6571 114.258 55.471C114.492 55.285 114.791 55.1994 115.088 55.233L134.759 57.4787C135.057 57.513 135.328 57.6637 135.515 57.8978C135.701 58.1319 135.787 58.4303 135.753 58.7274L133.751 76.2088C133.717 76.5058 133.566 76.7772 133.331 76.9632C133.097 77.1493 132.798 77.2349 132.5 77.2013V77.2013Z" fill="#FA8349"/>
<path d="M247.706 187.953H183.323C183.245 187.953 183.17 187.923 183.115 187.868C183.06 187.812 183.029 187.738 183.029 187.66C183.029 187.582 183.06 187.507 183.115 187.452C183.17 187.397 183.245 187.366 183.323 187.366H247.706C247.784 187.366 247.859 187.397 247.914 187.452C247.969 187.507 248 187.582 248 187.66C248 187.738 247.969 187.812 247.914 187.868C247.859 187.923 247.784 187.953 247.706 187.953Z" fill="#3F3D56"/>
<path d="M223.531 75.8204C223.432 76.2104 223.419 76.6174 223.495 77.0126C223.571 77.4078 223.732 77.7817 223.968 78.1078C224.204 78.434 224.509 78.7045 224.861 78.9004C225.213 79.0963 225.604 79.2127 226.006 79.2414L227.997 85.2082L231.924 84.8842L228.993 76.4974C228.997 75.82 228.752 75.1647 228.304 74.6559C227.856 74.147 227.236 73.8199 226.563 73.7364C225.89 73.653 225.209 73.819 224.65 74.2031C224.091 74.5872 223.693 75.1626 223.531 75.8204V75.8204Z" fill="#FFB8B8"/>
<path d="M226.538 114.894C226.998 115.316 227.562 115.61 228.172 115.745C228.782 115.88 229.417 115.852 230.013 115.664C230.609 115.475 231.144 115.133 231.565 114.673C231.987 114.212 232.279 113.648 232.412 113.038L235.522 98.8109C236.054 96.378 235.929 93.8477 235.159 91.479L231.519 80.274C231.467 80.1132 231.38 79.9655 231.266 79.8411C231.151 79.7167 231.011 79.6185 230.855 79.5532C230.698 79.4879 230.53 79.4571 230.361 79.4628C230.191 79.4685 230.025 79.5107 229.874 79.5864L227.498 80.7739C227.252 80.8968 227.057 81.102 226.947 81.3538C226.837 81.6055 226.819 81.8878 226.896 82.1515L227.135 82.974C229.127 89.813 229.231 97.0621 227.438 103.956L225.503 111.39C225.341 112.013 225.351 112.668 225.534 113.286C225.716 113.903 226.063 114.459 226.538 114.894Z" fill="#FA8349"/>
<path d="M214.093 184.884L210.732 184.884L209.134 171.941L214.094 171.941L214.093 184.884Z" fill="#FFB8B8"/>
<path d="M208.331 183.925H214.813V188H204.25C204.25 187.464 204.356 186.935 204.561 186.44C204.766 185.946 205.066 185.497 205.445 185.118C205.824 184.74 206.274 184.44 206.769 184.235C207.264 184.03 207.795 183.925 208.331 183.925V183.925Z" fill="#2F2E41"/>
<path d="M232.208 184.884L228.848 184.884L227.249 171.941L232.21 171.941L232.208 184.884Z" fill="#FFB8B8"/>
<path d="M226.447 183.925H232.929V188H222.366C222.366 187.464 222.471 186.935 222.676 186.44C222.881 185.946 223.182 185.497 223.561 185.118C223.94 184.74 224.39 184.44 224.885 184.235C225.38 184.03 225.911 183.925 226.447 183.925V183.925Z" fill="#2F2E41"/>
<path d="M222.366 92.8751C226.353 92.8751 229.586 89.6475 229.586 85.6661C229.586 81.6847 226.353 78.4572 222.366 78.4572C218.378 78.4572 215.145 81.6847 215.145 85.6661C215.145 89.6475 218.378 92.8751 222.366 92.8751Z" fill="#FFB8B8"/>
<path d="M197.676 132.68C197.726 132.281 197.864 131.898 198.079 131.557C198.294 131.217 198.581 130.928 198.919 130.71C199.258 130.492 199.641 130.352 200.04 130.298C200.44 130.243 200.846 130.277 201.231 130.397L205.266 125.568L208.804 127.3L203.009 134.04C202.765 134.672 202.297 135.193 201.694 135.504C201.091 135.814 200.395 135.893 199.738 135.726C199.08 135.558 198.507 135.155 198.127 134.594C197.747 134.033 197.587 133.352 197.676 132.68V132.68Z" fill="#FFB8B8"/>
<path d="M224.124 92.8748C225.21 92.8983 226.29 92.6918 227.291 92.2691C228.292 91.8464 229.192 91.2169 229.932 90.4221C230.672 89.6273 231.236 88.6851 231.585 87.6575C231.934 86.6298 232.062 85.54 231.96 84.4596C231.857 83.3792 231.527 82.3327 230.99 81.3889C230.454 80.445 229.723 79.6252 228.847 78.9833C227.97 78.3414 226.968 77.892 225.905 77.6645C224.842 77.437 223.743 77.4366 222.68 77.6634C221.092 76.7008 219.246 76.0531 217.396 76.2179C215.545 76.3826 213.716 77.4793 213.024 79.2006C212.332 80.9218 213.075 83.1906 214.796 83.8901C215.899 84.3386 217.144 84.1211 218.321 83.9402C219.498 83.7594 220.782 83.6414 221.807 84.2478C222.831 84.8541 223.292 86.4801 222.374 87.2382C221.888 87.656 221.541 88.2118 221.379 88.8316C221.217 89.4514 221.248 90.1058 221.468 90.7076C221.929 91.8982 223.187 92.8546 224.124 92.8748Z" fill="#2F2E41"/>
<path d="M233.082 132.395L234.363 180.925C234.367 181.087 234.338 181.247 234.277 181.397C234.216 181.547 234.125 181.683 234.009 181.796C233.893 181.909 233.754 181.997 233.603 182.054C233.451 182.111 233.289 182.136 233.128 182.128L228.908 181.913C228.639 181.9 228.383 181.794 228.182 181.614C227.982 181.434 227.849 181.191 227.807 180.925L222.788 149.405C222.767 149.27 222.699 149.147 222.596 149.057C222.493 148.966 222.362 148.915 222.226 148.91C222.089 148.906 221.955 148.95 221.847 149.033C221.739 149.117 221.663 149.236 221.634 149.369L214.84 179.717C214.804 179.88 214.734 180.032 214.634 180.165C214.534 180.298 214.407 180.409 214.261 180.489C214.116 180.569 213.954 180.618 213.788 180.631C213.623 180.645 213.456 180.623 213.299 180.568L209.111 180.312C208.869 180.226 208.662 180.063 208.521 179.848C208.38 179.634 208.314 179.379 208.332 179.123L211.988 131.936L233.082 132.395Z" fill="#2F2E41"/>
<path d="M235.138 109.346C235.844 101.992 230.428 95.3398 223.047 94.8166C219.867 94.5911 214.93 94.5105 213.302 98.6723C208.399 111.209 216.982 110.905 214.025 121.767C211.068 132.629 208.456 133.251 212.513 134.036C216.571 134.82 234.817 139.45 234.068 131.805C233.607 127.106 234.433 116.681 235.138 109.346Z" fill="#FA8349"/>
<path d="M214.758 97.397C215.341 97.1718 215.973 97.104 216.59 97.2006C217.208 97.2971 217.789 97.5545 218.275 97.9469C218.76 98.3392 219.134 98.8526 219.358 99.4351C219.581 100.018 219.647 100.649 219.548 101.265L217.244 115.644C216.85 118.103 215.808 120.414 214.226 122.339L206.741 131.444C206.634 131.575 206.499 131.681 206.347 131.755C206.195 131.829 206.029 131.87 205.859 131.873C205.69 131.877 205.522 131.845 205.366 131.778C205.211 131.711 205.072 131.611 204.958 131.485L203.181 129.514C202.996 129.31 202.89 129.048 202.879 128.773C202.869 128.499 202.955 128.229 203.123 128.012L203.647 127.333C208.001 121.692 210.748 114.981 211.597 107.909L212.513 100.282C212.59 99.6432 212.84 99.0371 213.235 98.5288C213.631 98.0206 214.157 97.6293 214.758 97.397V97.397Z" fill="#FA8349"/>
</svg>
