<svg width="589" height="570" viewBox="0 0 589 570" fill="none" xmlns="http://www.w3.org/2000/svg">
<path d="M544.948 534.012C547.652 545.87 547.66 559.458 537.593 567.651V513.653C538.151 514.782 538.915 516.393 539.762 518.368C541.493 522.405 543.567 527.953 544.948 534.012Z" fill="#F1F1F1" stroke="black"/>
<path d="M518.245 539.437C528.809 545.464 538.824 554.647 538.051 567.604L498.273 531.087C499.483 531.439 501.186 531.966 503.214 532.678C507.358 534.133 512.847 536.357 518.245 539.437Z" fill="#F1F1F1" stroke="black"/>
<path d="M181.527 406.344L404.684 275.917L181.527 406.344ZM181.527 406.344L181.526 406.344C180.86 406.733 180.066 406.841 179.32 406.645C178.574 406.45 177.936 405.966 177.545 405.3L181.527 406.344ZM260.449 25.058C259.702 24.8623 258.909 24.9705 258.242 25.3589L260.449 25.058ZM260.449 25.058C261.195 25.2537 261.833 25.7374 262.223 26.4029M260.449 25.058L262.223 26.4029M262.223 26.4029L262.223 26.4034M262.223 26.4029L262.223 26.4034M262.223 26.4034L405.728 271.935C406.117 272.602 406.225 273.395 406.029 274.142C405.833 274.888 405.35 275.526 404.684 275.916L262.223 26.4034ZM177.545 405.3L34.0405 159.768C33.6519 159.101 33.5436 158.308 33.7393 157.561C33.9351 156.815 34.4187 156.177 35.0842 155.787L177.545 405.3ZM35.0847 155.787L258.242 25.3592L35.0847 155.787Z" fill="white" stroke="black"/>
<path d="M166.733 381.881L389.89 251.454L166.733 381.881ZM166.733 381.881L166.732 381.882C166.066 382.27 165.272 382.378 164.526 382.183C163.78 381.987 163.142 381.503 162.752 380.838L166.733 381.881ZM245.655 0.595327C244.908 0.399623 244.115 0.507834 243.449 0.896214L245.655 0.595327ZM245.655 0.595327C246.401 0.791031 247.039 1.27467 247.429 1.94019M245.655 0.595327L247.429 1.94019M247.429 1.94019L247.43 1.94069M247.429 1.94019L247.43 1.94069M247.43 1.94069L390.934 247.473C391.323 248.139 391.431 248.933 391.235 249.679C391.04 250.425 390.556 251.064 389.89 251.454L247.43 1.94069ZM20.4741 131.638L20.4736 131.639C19.8913 131.98 19.4682 132.538 19.297 133.191C19.1258 133.844 19.2205 134.538 19.5604 135.121L19.5607 135.121L163.066 380.654L163.066 380.655C163.407 381.237 163.966 381.66 164.618 381.831C165.271 382.002 165.965 381.908 166.548 381.568L166.549 381.567L389.707 251.139L389.707 251.139C390.29 250.798 390.713 250.24 390.884 249.587C391.055 248.934 390.96 248.24 390.621 247.657L390.62 247.657L247.115 2.12383L247.115 2.12336C246.774 1.54108 246.215 1.11791 245.563 0.946713C244.91 0.775514 244.216 0.870255 243.633 1.21016L243.632 1.21043L20.4741 131.638ZM162.751 380.837L19.2467 135.305C18.8581 134.639 18.7498 133.845 18.9455 133.099C19.1412 132.353 19.6249 131.714 20.2904 131.324L162.751 380.837ZM20.2909 131.324L243.448 0.896502L20.2909 131.324Z" fill="#3F3D56" stroke="black"/>
<path d="M104.592 187.394C104.982 188.06 105.62 188.544 106.367 188.74C107.113 188.935 107.906 188.827 108.573 188.439L104.592 187.394ZM104.592 187.394L72.2437 132.047C71.8551 131.381 71.7468 130.587 71.9425 129.841C72.1383 129.094 72.6221 128.456 73.2879 128.066L128.635 95.7176L104.592 187.394ZM130.841 95.4164C130.095 95.2207 129.302 95.3289 128.635 95.7173L130.841 95.4164ZM130.841 95.4164C131.588 95.6121 132.226 96.0958 132.616 96.7613L130.841 95.4164ZM73.4711 128.38L73.4706 128.381C72.8883 128.722 72.4651 129.28 72.2939 129.933C72.1227 130.586 72.2175 131.28 72.5574 131.863L72.5577 131.863L104.907 187.211L104.907 187.212C105.248 187.794 105.806 188.217 106.459 188.388C107.112 188.56 107.806 188.465 108.389 188.125L108.389 188.125L163.737 155.776L163.738 155.775C164.32 155.434 164.743 154.876 164.914 154.223C165.086 153.57 164.991 152.876 164.651 152.293L164.651 152.293L132.302 96.945L132.302 96.9445C131.96 96.3622 131.402 95.9391 130.749 95.7679C130.097 95.5967 129.402 95.6914 128.819 96.0313L128.819 96.0316L73.4711 128.38ZM163.92 156.09L108.574 188.439L132.616 96.7618L164.965 152.109C165.353 152.775 165.462 153.569 165.266 154.315C165.07 155.062 164.586 155.7 163.92 156.09Z" fill="#F2F2F2" stroke="black"/>
<path d="M93.1182 203.58C93.4627 204.168 94.0262 204.595 94.6851 204.767C95.3439 204.94 96.0443 204.845 96.6328 204.502L93.1182 203.58ZM93.1182 203.58L60.7699 148.233C60.4268 147.644 60.3312 146.944 60.504 146.285C60.6768 145.626 61.1037 145.062 61.6913 144.718L93.1182 203.58ZM151.98 172.153L96.6333 204.502L152.902 168.639C153.245 169.227 153.341 169.928 153.168 170.586C152.995 171.245 152.568 171.809 151.981 172.153C151.981 172.153 151.98 172.153 151.98 172.153ZM120.554 113.291L152.902 168.638L120.554 113.291ZM61.6917 144.718L117.039 112.369C117.039 112.369 117.039 112.369 117.039 112.369C117.628 112.026 118.328 111.931 118.987 112.104C119.646 112.276 120.209 112.703 120.553 113.291L61.6917 144.718Z" fill="#FA8349" stroke="black"/>
<path d="M285.573 130.411L112.463 231.587C111.875 231.931 111.174 232.027 110.515 231.854C109.856 231.681 109.293 231.254 108.949 230.665C108.605 230.077 108.509 229.376 108.682 228.717C108.855 228.058 109.282 227.495 109.87 227.151L282.98 125.975C283.271 125.805 283.593 125.693 283.927 125.648C284.262 125.602 284.602 125.622 284.928 125.708C285.254 125.793 285.561 125.942 285.829 126.146C286.098 126.35 286.324 126.605 286.494 126.896C286.664 127.188 286.776 127.51 286.821 127.844C286.867 128.178 286.847 128.518 286.761 128.844C286.676 129.171 286.527 129.477 286.323 129.746C286.119 130.015 285.864 130.241 285.573 130.411Z" fill="#CCCCCC" stroke="black"/>
<path d="M255.186 172.433C254.984 172.698 254.733 172.922 254.446 173.091L254.435 173.097L123.131 249.84C122.84 250.01 122.518 250.122 122.184 250.167C121.85 250.213 121.51 250.193 121.183 250.107C120.524 249.934 119.961 249.507 119.617 248.918C119.273 248.33 119.177 247.629 119.35 246.97C119.523 246.311 119.95 245.748 120.539 245.404L251.843 168.662C252.134 168.491 252.456 168.38 252.79 168.334C253.125 168.289 253.465 168.309 253.791 168.395C254.117 168.48 254.423 168.629 254.692 168.833C254.961 169.037 255.187 169.292 255.357 169.583C255.527 169.874 255.639 170.196 255.684 170.531C255.73 170.865 255.71 171.205 255.624 171.531C255.539 171.858 255.39 172.164 255.186 172.433Z" fill="#CCCCCC" stroke="black"/>
<path d="M245.752 63.6307L169.207 108.369C168.619 108.712 167.918 108.808 167.259 108.636C166.6 108.463 166.037 108.035 165.693 107.447C165.349 106.859 165.253 106.158 165.426 105.499C165.599 104.84 166.026 104.276 166.615 103.933L243.16 59.1948C243.748 58.851 244.448 58.755 245.107 58.9278C245.434 59.0134 245.74 59.1624 246.009 59.3663C246.278 59.5703 246.504 59.8252 246.674 60.1164C246.844 60.4077 246.955 60.7296 247.001 61.0639C247.047 61.3981 247.026 61.7381 246.941 62.0645C246.855 62.3908 246.706 62.6971 246.502 62.9658C246.298 63.2345 246.043 63.4605 245.752 63.6307Z" fill="#CCCCCC" stroke="black"/>
<path d="M237.317 93.0489L179.875 126.622C179.584 126.792 179.262 126.903 178.928 126.949C178.594 126.995 178.254 126.974 177.927 126.889C177.601 126.803 177.295 126.654 177.026 126.45C176.757 126.246 176.531 125.991 176.361 125.7C176.191 125.409 176.08 125.087 176.034 124.753C175.988 124.418 176.008 124.078 176.094 123.752C176.18 123.426 176.329 123.119 176.533 122.851C176.737 122.582 176.991 122.356 177.283 122.186L234.725 88.613C235.313 88.2691 236.014 88.1731 236.673 88.3459C237.332 88.5188 237.895 88.9464 238.239 89.5346C238.583 90.1228 238.679 90.8236 238.506 91.4826C238.333 92.1417 237.906 92.7051 237.317 93.0489Z" fill="#CCCCCC" stroke="black"/>
<path d="M308.098 165.35C307.925 166.01 307.497 166.573 306.909 166.917L306.661 167.061L133.8 268.093C133.211 268.437 132.511 268.533 131.852 268.36C131.193 268.187 130.629 267.76 130.285 267.171C129.942 266.583 129.845 265.882 130.018 265.223C130.191 264.564 130.619 264.001 131.207 263.657L304.316 162.481C304.905 162.137 305.605 162.041 306.264 162.214C306.924 162.387 307.487 162.814 307.831 163.402C308.175 163.991 308.271 164.691 308.098 165.35Z" fill="#CCCCCC" stroke="black"/>
<path d="M276.522 208.939C276.32 209.205 276.068 209.429 275.781 209.598L275.772 209.604L144.468 286.346C144.177 286.516 143.855 286.628 143.52 286.673C143.186 286.719 142.846 286.699 142.52 286.613C142.193 286.528 141.887 286.379 141.618 286.175C141.35 285.971 141.124 285.716 140.954 285.424C140.783 285.133 140.672 284.811 140.626 284.477C140.58 284.143 140.601 283.803 140.687 283.476C140.772 283.15 140.921 282.844 141.125 282.575C141.329 282.306 141.584 282.08 141.875 281.91L273.179 205.168C273.471 204.997 273.793 204.886 274.127 204.84C274.461 204.795 274.801 204.815 275.127 204.901C275.454 204.986 275.76 205.135 276.029 205.339C276.297 205.543 276.523 205.798 276.694 206.089C276.864 206.381 276.975 206.703 277.021 207.037C277.067 207.371 277.046 207.711 276.961 208.037C276.875 208.364 276.726 208.67 276.522 208.939Z" fill="#CCCCCC" stroke="black"/>
<path d="M328.246 203.423L155.136 304.599C154.845 304.769 154.523 304.881 154.189 304.926C153.854 304.972 153.514 304.952 153.188 304.866C152.862 304.781 152.555 304.632 152.287 304.428C152.018 304.224 151.792 303.969 151.622 303.677C151.452 303.386 151.34 303.064 151.295 302.73C151.249 302.396 151.269 302.056 151.355 301.729C151.44 301.403 151.589 301.097 151.793 300.828C151.997 300.559 152.252 300.333 152.543 300.163L325.653 198.987C325.944 198.817 326.266 198.705 326.6 198.66C326.935 198.614 327.275 198.634 327.601 198.72C327.927 198.805 328.234 198.954 328.502 199.158C328.771 199.362 328.997 199.617 329.167 199.909C329.337 200.2 329.449 200.522 329.494 200.856C329.54 201.19 329.52 201.53 329.434 201.857C329.349 202.183 329.2 202.489 328.996 202.758C328.792 203.027 328.537 203.253 328.246 203.423Z" fill="#CCCCCC" stroke="black"/>
<path d="M338.914 221.676L165.804 322.852C165.513 323.022 165.191 323.134 164.857 323.179C164.523 323.225 164.183 323.205 163.856 323.119C163.53 323.034 163.224 322.885 162.955 322.681C162.686 322.477 162.46 322.222 162.29 321.931C162.12 321.639 162.009 321.317 161.963 320.983C161.917 320.649 161.937 320.309 162.023 319.983C162.109 319.656 162.258 319.35 162.462 319.081C162.666 318.812 162.92 318.587 163.212 318.416L336.321 217.24C336.612 217.07 336.934 216.959 337.269 216.913C337.603 216.867 337.943 216.887 338.269 216.973C338.596 217.059 338.902 217.208 339.171 217.412C339.439 217.615 339.665 217.87 339.835 218.162C340.006 218.453 340.117 218.775 340.163 219.109C340.209 219.443 340.188 219.783 340.102 220.11C340.017 220.436 339.868 220.742 339.664 221.011C339.46 221.28 339.205 221.506 338.914 221.676Z" fill="#CCCCCC" stroke="black"/>
<path d="M287.322 283.325C287.355 283.27 287.388 283.216 287.42 283.161C288.051 283.358 288.697 283.519 289.354 283.645C289.312 283.716 289.27 283.786 289.228 283.857C287.34 287.025 285.192 290.03 282.805 292.841L282.804 292.842C282.801 292.846 282.797 292.85 282.794 292.854C282.586 293.094 282.376 293.159 282.198 293.153C281.999 293.146 281.777 293.047 281.589 292.863C281.208 292.488 281.094 291.917 281.484 291.455C283.643 288.906 285.595 286.188 287.32 283.328L287.32 283.327L287.322 283.325ZM289.889 282.724C289.23 282.612 288.581 282.463 287.95 282.276C288.285 281.71 288.619 281.13 288.938 280.536C289.568 280.698 290.215 280.823 290.873 280.911C290.562 281.522 290.23 282.126 289.889 282.724ZM280.582 269.198C281.221 268.06 282.157 267.116 283.289 266.466C284.393 265.837 285.669 265.575 286.931 265.718C288.193 265.862 289.376 266.402 290.31 267.262C291.3 268.21 292.051 269.379 292.504 270.672C292.958 271.967 293.1 273.351 292.918 274.711L292.918 274.711L292.917 274.722C292.714 276.542 292.12 278.28 291.337 279.962C290.682 279.887 290.037 279.774 289.409 279.623C290.122 278.179 290.705 276.657 290.962 275.065C291.192 273.94 291.143 272.777 290.82 271.675C290.495 270.57 289.904 269.561 289.098 268.739L289.091 268.732L289.084 268.725C288.303 267.986 287.265 267.578 286.188 267.59C285.115 267.601 284.087 268.029 283.322 268.782C282.472 269.58 281.892 270.625 281.665 271.769C281.438 272.915 281.576 274.103 282.059 275.166C282.562 276.3 283.294 277.318 284.208 278.157C285.121 278.995 286.197 279.636 287.368 280.04C287.562 280.113 287.758 280.183 287.956 280.248C287.643 280.822 287.313 281.39 286.978 281.953C285.843 281.533 284.776 280.979 283.818 280.285L283.818 280.285L283.81 280.279C282.607 279.443 281.609 278.347 280.89 277.071C280.172 275.799 279.75 274.381 279.655 272.923C279.623 271.621 279.943 270.334 280.582 269.198ZM290.954 282.873C291.294 282.268 291.626 281.651 291.937 281.021C295.566 281.285 299.391 280.445 302.28 278.461C304.175 277.16 305.659 275.034 306.266 272.748C306.477 271.955 306.583 271.136 306.562 270.323C307.128 270.737 307.746 271.065 308.394 271.301C308.337 272.071 308.191 272.839 307.965 273.589C307.046 276.648 304.805 279.412 301.856 280.938C298.713 282.563 294.716 283.287 290.954 282.873ZM311.703 270.698C310.934 270.793 310.162 270.747 309.422 270.568C309.422 269.882 309.358 269.196 309.223 268.517C309.92 268.802 310.685 268.909 311.446 268.819C312.62 268.68 313.692 268.082 314.428 267.156C314.804 266.684 315.076 266.146 315.236 265.576L315.417 265.656C315.939 265.887 316.472 266.092 317.012 266.269C316.766 267.055 316.368 267.793 315.833 268.439C314.795 269.691 313.318 270.499 311.703 270.698ZM306.195 264.523C306.236 264.572 306.276 264.62 306.316 264.669L304.666 265.633C304.659 265.597 304.652 265.561 304.645 265.525L304.645 265.525L304.644 265.519C304.565 265.12 304.79 264.656 305.172 264.401C305.354 264.279 305.539 264.229 305.7 264.241C305.851 264.252 306.023 264.321 306.195 264.523ZM307.148 269.512C306.872 269.31 306.614 269.087 306.377 268.846C306.182 268.002 305.828 267.184 305.289 266.428L306.622 265.648C306.867 266.47 307.344 267.208 308.001 267.771C308.254 268.578 308.389 269.405 308.417 270.235C307.971 270.045 307.545 269.803 307.148 269.512ZM317.537 263.499L315.385 264.757C315.41 264.477 315.408 264.195 315.379 263.912C315.387 263.756 315.432 263.603 315.512 263.467C315.596 263.324 315.716 263.204 315.86 263.12C316.004 263.036 316.167 262.99 316.333 262.987C316.5 262.984 316.664 263.024 316.811 263.103L316.832 263.114L316.854 263.124C317.118 263.234 317.384 263.337 317.653 263.431L317.537 263.499ZM318.271 263.632C320.344 264.252 322.539 264.391 324.686 264.028C327.33 263.58 329.792 262.391 331.786 260.598L331.789 260.594C332.248 260.174 332.644 259.687 333.012 259.235C333.079 259.154 333.144 259.074 333.209 258.995C333.645 258.465 334.059 257.998 334.557 257.647C335.596 256.916 336.642 256.198 337.69 255.479C338.215 255.118 338.741 254.757 339.267 254.393L338.983 253.982L339.267 254.393L348.695 247.879C348.964 247.693 349.186 247.685 349.357 247.739C349.546 247.798 349.733 247.951 349.865 248.179C350.134 248.641 350.093 249.224 349.595 249.569L339.185 256.761C338.834 257.004 338.46 257.242 338.071 257.489L338.061 257.495C337.679 257.739 337.283 257.99 336.898 258.255C336.124 258.786 335.362 259.391 334.784 260.145C333.929 261.24 332.926 262.21 331.802 263.027L331.801 263.027C329.523 264.691 326.846 265.725 324.041 266.026C322.077 266.237 320.098 266.083 318.202 265.579C318.294 265.028 318.324 264.465 318.288 263.899L318.271 263.632ZM316.749 265.118L317.288 264.803C317.276 264.966 317.259 265.128 317.235 265.289C317.072 265.235 316.91 265.178 316.749 265.118ZM283.517 292.771C285.79 290.052 287.844 287.157 289.658 284.112L283.517 292.771Z" fill="#FA8349" stroke="black"/>
<path d="M309.302 363.475L309.456 363.693L309.723 363.687L341.959 362.898L342.247 362.891L342.385 362.638L345.935 356.152L356.157 360.125L350.885 372.462C350.485 373.398 349.792 374.178 348.911 374.687C348.03 375.195 347.007 375.404 345.997 375.282L309.577 370.883L309.299 370.849L309.125 371.069C308.329 372.077 307.245 372.819 306.017 373.195C304.789 373.572 303.475 373.566 302.251 373.178C301.026 372.79 299.949 372.038 299.162 371.023C298.375 370.008 297.916 368.777 297.846 367.495C297.776 366.212 298.098 364.939 298.769 363.843C299.44 362.748 300.428 361.883 301.603 361.364C302.778 360.844 304.083 360.695 305.345 360.935C306.606 361.175 307.764 361.793 308.665 362.707C308.898 362.946 309.11 363.203 309.302 363.475Z" fill="#FFB7B7" stroke="black"/>
<path d="M413.605 557.626H403.949L399.029 517.742L413.607 517.743L413.605 557.626Z" fill="#FFB7B7" stroke="black"/>
<path d="M416.308 567.9L416.309 555.165L395.935 555.165H395.935H395.934L416.308 567.9ZM416.308 567.9L383.132 567.899C383.15 564.528 384.497 561.299 386.882 558.915C389.283 556.514 392.539 555.165 395.934 555.165L416.308 567.9Z" fill="#2F2E41" stroke="black"/>
<path d="M333.266 520.558L317.597 557.234L308.717 553.44L319.86 514.831L333.266 520.558Z" fill="#FFB7B7" stroke="black"/>
<path d="M302.314 548.029L302.315 548.029L321.05 556.033L316.047 567.744L285.539 554.71C286.879 551.618 289.386 549.178 292.516 547.921C295.666 546.657 299.189 546.695 302.311 548.027C302.312 548.028 302.313 548.028 302.314 548.029Z" fill="#2F2E41" stroke="black"/>
<path d="M384.277 385.534L362.348 383.188L363.057 371.695L400.421 370.195L406.92 387.958L384.277 385.534L384.231 385.962L384.277 385.534Z" fill="#FFB7B7" stroke="black"/>
<path d="M367.652 318.65L367.805 318.599L367.9 318.469L372.17 312.613L393.156 313.855L396.197 320.669L396.273 320.838L396.44 320.917L407.634 326.206L405.885 358.685L405.884 358.71L405.885 358.735L407.148 385.634L361.55 383.315L352.965 323.463L367.652 318.65Z" fill="#2F2E41" stroke="black"/>
<path d="M355.29 366.857L340.878 361.091C341.4 358.912 347.475 333.496 348.311 329.266L348.311 329.266C349.108 325.234 351.866 323.949 352.284 323.776L357.884 325.48L360.499 346.021L355.29 366.857Z" fill="#2F2E41" stroke="black"/>
<path d="M305.996 546.142L338.446 456.602L338.446 456.602L349.619 425.876L349.625 425.86L349.629 425.843L349.149 425.705C349.629 425.843 349.629 425.843 349.63 425.843L349.63 425.842L349.631 425.839L349.635 425.826L349.65 425.773L349.71 425.565C349.762 425.382 349.84 425.113 349.94 424.767C350.14 424.075 350.429 423.075 350.786 421.846C351.501 419.388 352.486 416.012 353.572 412.337C355.744 404.985 358.314 396.451 359.911 391.694L359.925 391.653L359.932 391.61L361.792 379.293L406.82 384.277C406.824 384.282 406.827 384.288 406.831 384.293C406.921 384.434 407.054 384.646 407.222 384.928C407.558 385.492 408.036 386.334 408.6 387.442C409.726 389.657 411.191 392.933 412.536 397.161C415.226 405.615 417.438 417.877 415.508 433.084L415.503 433.12L415.504 433.155L417.252 547.612L397.762 548.611L380.719 433.139L380.478 431.505L379.772 432.999L349.744 496.546L349.733 496.57L349.724 496.595L350.196 496.76C349.724 496.595 349.724 496.595 349.724 496.595L349.724 496.596L349.723 496.6L349.718 496.614L349.697 496.672C349.679 496.723 349.653 496.799 349.617 496.898C349.547 497.098 349.442 497.391 349.306 497.766C349.035 498.518 348.64 499.598 348.144 500.912C347.153 503.542 345.761 507.108 344.158 510.857C342.555 514.607 340.744 518.531 338.915 521.881C337.077 525.247 335.252 527.972 333.633 529.378L333.54 529.459L333.495 529.573L325.443 550.131L305.996 546.142Z" fill="#2F2E41" stroke="black"/>
<path d="M389.776 388.627L390.041 388.662L390.218 388.462L411.557 364.288L411.747 364.072L411.656 363.799L409.313 356.785L419.177 351.991L424.639 364.245C425.053 365.174 425.154 366.213 424.928 367.205C424.702 368.197 424.16 369.089 423.384 369.746L395.395 393.462L395.181 393.643L395.224 393.92C395.422 395.189 395.229 396.488 394.67 397.645C394.112 398.802 393.214 399.761 392.097 400.395C390.98 401.029 389.697 401.308 388.417 401.194C387.138 401.081 385.923 400.581 384.935 399.761C383.946 398.94 383.231 397.838 382.885 396.602C382.538 395.365 382.576 394.052 382.993 392.837C383.411 391.623 384.189 390.564 385.223 389.802C386.256 389.04 387.497 388.611 388.78 388.572C389.113 388.564 389.446 388.582 389.776 388.627Z" fill="#FFB7B7" stroke="black"/>
<path d="M409.315 326.533L409.325 326.537L409.334 326.541C410.492 327.007 411.606 328.51 412.538 331.294L412.538 331.294L412.541 331.301L420.776 354.759L409.655 365.447L401.101 345.327L404.51 331.01L408.097 326.478C408.275 326.416 408.463 326.386 408.652 326.388C408.881 326.39 409.107 326.439 409.315 326.533Z" fill="#2F2E41" stroke="black"/>
<path d="M404.414 305.994C403.975 306.433 403.38 306.68 402.759 306.681H366.138C365.517 306.68 364.922 306.433 364.483 305.994C364.044 305.555 363.797 304.96 363.796 304.339V288.554C363.796 283.077 365.972 277.824 369.845 273.951C373.718 270.078 378.971 267.902 384.448 267.902C389.926 267.902 395.179 270.078 399.052 273.951C402.925 277.824 405.101 283.077 405.101 288.554V304.339C405.1 304.96 404.853 305.555 404.414 305.994Z" fill="#2F2E41" stroke="black"/>
<path d="M395.11 291.305C395.11 299.594 388.391 306.313 380.102 306.313C371.813 306.313 365.094 299.594 365.094 291.305C365.094 283.016 371.813 276.297 380.102 276.297C388.391 276.297 395.11 283.016 395.11 291.305Z" fill="#FFB7B7" stroke="black"/>
<path d="M385.468 283.725L385.046 289.633H382.416L381.386 286.749L380.416 286.882L380.22 289.633H358.793C358.846 285.396 360.552 281.344 363.552 278.344C366.595 275.301 370.721 273.589 375.025 273.584H378.181C382.485 273.589 386.611 275.301 389.654 278.344C392.654 281.344 394.36 285.396 394.413 289.633H388.594L386.437 283.592L385.468 283.725Z" fill="#2F2E41" stroke="black"/>
<path d="M378.795 306.218L378.796 306.217C380.479 303.015 382.513 298.432 383.338 293.716C384.14 289.131 383.812 284.335 380.798 280.59H397.269V306.77L381.285 309.591L381.284 309.591C381.147 309.615 381.008 309.627 380.868 309.627C380.5 309.627 380.137 309.54 379.809 309.372C379.48 309.205 379.197 308.962 378.981 308.663L378.576 308.956L378.978 308.659C378.721 308.311 378.567 307.897 378.535 307.465C378.502 307.033 378.593 306.6 378.795 306.218Z" fill="#2F2E41" stroke="black"/>
<path d="M194.652 517.581L177.342 551.999L168.651 548.893L181.518 512.888L194.652 517.581Z" fill="#9F616A" stroke="black"/>
<path d="M192.834 568.007L162.889 557.306L166.989 545.834L185.382 552.408C188.443 553.506 190.944 555.773 192.335 558.713C193.715 561.627 193.893 564.965 192.834 568.007Z" fill="#2F2E41" stroke="black"/>
<path d="M244.747 519.934L240.03 558.17L230.8 558.17L230.799 519.935L244.747 519.934Z" fill="#9F616A" stroke="black"/>
<path d="M228.206 568.031L228.206 555.849L247.738 555.848H247.739C249.35 555.848 250.945 556.166 252.433 556.782C253.922 557.398 255.274 558.302 256.413 559.441C257.552 560.58 258.456 561.932 259.072 563.421C259.678 564.883 259.995 566.448 260.006 568.03L228.206 568.031Z" fill="#2F2E41" stroke="black"/>
<path d="M225.728 307.13C227.247 308.627 228.396 310.342 228.878 312.288L207.855 307.653L211.804 299.849C211.893 299.874 211.997 299.903 212.113 299.937C212.56 300.067 213.202 300.263 213.978 300.528C215.531 301.059 217.614 301.865 219.74 302.963C221.868 304.063 224.021 305.448 225.728 307.13Z" fill="#F1F1F1" stroke="black"/>
<path d="M227.515 546.833L225.042 469.338L224.06 469.22L219.93 484.092L187.82 538.431L169.669 531.328L201.33 475.337L201.419 475.18L201.387 475.002L189.458 408.436L239.064 406.809L251.628 474.018L243.792 546.339L227.515 546.833Z" fill="#2F2E41" stroke="black"/>
<path d="M247.268 367.719L247.24 367.629L247.092 367.143L246.53 365.299L244.524 358.712C242.862 353.259 240.646 345.983 238.424 338.692C236.202 331.401 233.975 324.095 232.293 318.583C231.453 315.826 230.748 313.518 230.249 311.884C229.999 311.067 229.801 310.419 229.662 309.967C229.593 309.742 229.539 309.565 229.501 309.442L229.456 309.297L229.452 309.283L216.241 304.33L216.225 304.324L216.209 304.316C216.135 304.283 215.009 303.78 213.463 303.488C211.911 303.196 209.998 303.129 208.302 303.896C207.431 304.321 206.662 304.931 206.05 305.683C205.437 306.437 204.995 307.315 204.757 308.258L204.713 308.43L204.571 308.536C204.246 308.778 203.308 309.714 202.068 311.284C200.839 312.838 199.339 314.981 197.886 317.606C194.978 322.859 192.268 330.021 192.268 338.254V338.259L191.853 377.629L191.853 377.679L191.842 377.729L247.268 367.719ZM247.268 367.719L247.266 367.785L247.257 368.21L247.223 369.823C247.193 371.214 247.149 373.203 247.096 375.595C246.99 380.379 246.845 386.775 246.687 393.222C246.53 399.67 246.361 406.169 246.209 411.159C246.132 413.655 246.06 415.772 245.995 417.316C245.962 418.088 245.932 418.715 245.904 419.173C245.893 419.353 245.882 419.505 245.872 419.629L247.268 367.719ZM246.113 420.098C246.045 420.108 245.961 420.121 245.861 420.136C245.848 420.114 245.836 420.091 245.825 420.066L246.113 420.098Z" fill="#3F3D56" stroke="black"/>
<path d="M242.939 278.352C242.939 288.103 235.034 296.008 225.282 296.008C215.531 296.008 207.625 288.103 207.625 278.352C207.625 268.6 215.531 260.695 225.282 260.695C235.034 260.695 242.939 268.6 242.939 278.352Z" fill="#9F616A" stroke="black"/>
<path opacity="0.2" d="M240.929 365.326L236.561 384.598L206.984 343.33L240.929 365.326Z" fill="black" stroke="black"/>
<path d="M304.4 371.172L304.32 371.235L304.318 371.237C303.482 371.899 302.511 372.369 301.473 372.614C300.436 372.86 299.358 372.875 298.314 372.658C297.27 372.442 296.286 371.999 295.432 371.362C294.578 370.724 293.874 369.907 293.37 368.968L293.201 368.654L292.85 368.71L266.426 372.94L271.846 360.94L296.609 358.82L296.695 358.813L296.774 358.777C298.408 358.034 300.258 357.917 301.974 358.447C303.689 358.977 305.15 360.118 306.08 361.654C307.011 363.19 307.345 365.013 307.021 366.779C306.703 368.512 305.771 370.071 304.4 371.172Z" fill="#9F616A" stroke="black"/>
<path d="M273.596 372.171L273.425 360.174L282.341 359.299L284.859 371.972L273.596 372.171Z" fill="#F1F1F1" stroke="black"/>
<path d="M232.876 325.296L232.876 325.296L247.137 353.114L247.254 353.342L247.507 353.38L275.953 357.68L280.33 376.678L233.15 372.477L209.034 334.123L208.978 333.867C208.978 333.867 208.978 333.867 208.978 333.867C208.314 330.83 208.779 327.655 210.285 324.935C211.791 322.214 214.235 320.135 217.162 319.086C220.089 318.036 223.297 318.087 226.189 319.23C229.081 320.373 231.457 322.529 232.876 325.296Z" fill="#3F3D56" stroke="black"/>
<mask id="path-43-inside-1_4_79" fill="white">
<path d="M209.817 294.116L224.887 294.657C225.805 294.69 228.299 284.776 228.625 282.719C228.883 281.38 229.619 280.181 230.697 279.345C231.774 278.51 233.119 278.095 234.48 278.179C235.608 278.285 238.453 276.178 241.388 273.682C246.961 268.944 246.671 260.045 240.549 256.042C240.382 255.932 240.218 255.833 240.057 255.742C236.195 253.581 231.677 252.855 227.252 252.799C223.24 252.749 219.114 253.254 215.58 255.153C209.244 258.557 205.872 265.996 205.575 273.183C205.279 280.37 207.583 287.397 210.198 294.098"/>
</mask>
<path d="M209.817 294.116L224.887 294.657C225.805 294.69 228.299 284.776 228.625 282.719C228.883 281.38 229.619 280.181 230.697 279.345C231.774 278.51 233.119 278.095 234.48 278.179C235.608 278.285 238.453 276.178 241.388 273.682C246.961 268.944 246.671 260.045 240.549 256.042C240.382 255.932 240.218 255.833 240.057 255.742C236.195 253.581 231.677 252.855 227.252 252.799C223.24 252.749 219.114 253.254 215.58 255.153C209.244 258.557 205.872 265.996 205.575 273.183C205.279 280.37 207.583 287.397 210.198 294.098" fill="#2F2E41"/>
<path d="M224.887 294.657L224.851 295.656L224.851 295.656L224.887 294.657ZM228.625 282.719L227.643 282.53L227.64 282.546L227.637 282.563L228.625 282.719ZM234.48 278.179L234.574 277.183L234.558 277.181L234.541 277.18L234.48 278.179ZM241.388 273.682L240.741 272.92L240.741 272.92L241.388 273.682ZM240.549 256.042L240.002 256.879L240.002 256.879L240.549 256.042ZM240.057 255.742L240.546 254.87L240.545 254.87L240.057 255.742ZM227.252 252.799L227.264 251.799L227.264 251.799L227.252 252.799ZM215.58 255.153L215.107 254.272L215.107 254.272L215.58 255.153ZM209.781 295.115L224.851 295.656L224.923 293.657L209.852 293.116L209.781 295.115ZM224.851 295.656C225.353 295.674 225.68 295.365 225.796 295.245C225.947 295.089 226.069 294.903 226.164 294.737C226.36 294.397 226.556 293.947 226.746 293.454C227.13 292.455 227.548 291.121 227.94 289.746C228.721 287.004 229.44 283.965 229.613 282.876L227.637 282.563C227.484 283.53 226.792 286.476 226.016 289.197C225.63 290.554 225.231 291.82 224.879 292.736C224.701 293.199 224.549 293.534 224.431 293.738C224.37 293.844 224.344 293.87 224.357 293.856C224.365 293.848 224.407 293.805 224.486 293.76C224.568 293.714 224.72 293.65 224.923 293.657L224.851 295.656ZM229.607 282.908C229.819 281.808 230.424 280.822 231.31 280.136L230.084 278.555C228.815 279.54 227.947 280.953 227.643 282.53L229.607 282.908ZM231.31 280.136C232.195 279.449 233.3 279.108 234.419 279.177L234.541 277.18C232.938 277.082 231.353 277.571 230.084 278.555L231.31 280.136ZM234.386 279.174C234.953 279.228 235.553 279.01 236.048 278.777C236.586 278.524 237.187 278.161 237.817 277.734C239.081 276.878 240.558 275.7 242.036 274.444L240.741 272.92C239.283 274.159 237.87 275.283 236.696 276.078C236.107 276.477 235.602 276.776 235.197 276.967C234.75 277.177 234.571 277.183 234.574 277.183L234.386 279.174ZM242.036 274.444C248.083 269.303 247.815 259.599 241.097 255.205L240.002 256.879C245.528 260.492 245.839 268.585 240.741 272.92L242.036 274.444ZM241.097 255.205C240.912 255.084 240.728 254.972 240.546 254.87L239.568 256.614C239.707 256.693 239.852 256.781 240.002 256.879L241.097 255.205ZM240.545 254.87C236.481 252.595 231.776 251.856 227.264 251.799L227.239 253.799C231.578 253.854 235.909 254.566 239.568 256.615L240.545 254.87ZM227.264 251.799C223.177 251.748 218.856 252.258 215.107 254.272L216.053 256.034C219.373 254.25 223.302 253.75 227.239 253.799L227.264 251.799ZM215.107 254.272C208.363 257.895 204.882 265.726 204.576 273.142L206.575 273.224C206.861 266.267 210.124 259.219 216.053 256.034L215.107 254.272ZM204.576 273.142C204.271 280.553 206.647 287.748 209.266 294.461L211.129 293.734C208.52 287.046 206.288 280.187 206.575 273.224L204.576 273.142Z" fill="black" mask="url(#path-43-inside-1_4_79)"/>
<path d="M587.598 568.743H0.789144C0.712476 568.743 0.638925 568.712 0.584688 568.658C0.530458 568.604 0.5 568.53 0.5 568.453C0.5 568.377 0.530458 568.303 0.584688 568.249C0.638925 568.195 0.712476 568.164 0.789144 568.164H587.912C587.989 568.164 588.062 568.195 588.116 568.249C588.168 568.301 588.198 568.37 588.201 568.443C588.199 568.447 588.195 568.454 588.187 568.465C588.163 568.498 588.116 568.544 588.042 568.591C587.886 568.692 587.703 568.743 587.598 568.743Z" fill="#CBCBCB" stroke="black"/>
</svg>
