<svg width="589" height="570" viewBox="0 0 589 570" fill="none" xmlns="http://www.w3.org/2000/svg">
<path d="M537.093 568.675V511.588C537.093 511.588 559.34 552.06 537.093 568.675Z" fill="#F1F1F1"/>
<path d="M538.467 568.664L496.414 530.059C496.414 530.059 541.273 541.04 538.467 568.664Z" fill="#F1F1F1"/>
<path d="M404.937 276.348L181.779 406.776C180.997 407.231 180.068 407.358 179.193 407.129C178.319 406.9 177.571 406.333 177.114 405.553L33.6086 160.02C33.1533 159.239 33.0264 158.309 33.2557 157.435C33.485 156.56 34.0519 155.812 34.8319 155.355L257.99 24.9272C258.771 24.4719 259.701 24.345 260.575 24.5744C261.45 24.8037 262.198 25.3706 262.655 26.1506L406.16 271.683C406.615 272.464 406.742 273.394 406.513 274.269C406.283 275.143 405.717 275.891 404.937 276.348Z" fill="white"/>
<path d="M390.143 251.885L166.985 382.313C166.204 382.769 165.274 382.896 164.399 382.666C163.525 382.437 162.777 381.87 162.32 381.09L18.8148 135.557C18.3595 134.776 18.2326 133.846 18.4619 132.972C18.6912 132.097 19.2581 131.35 20.0381 130.892L243.196 0.464537C243.977 0.00923724 244.907 -0.117661 245.782 0.111682C246.656 0.341025 247.404 0.907882 247.861 1.68789L391.366 247.221C391.821 248.002 391.948 248.932 391.719 249.806C391.49 250.68 390.923 251.428 390.143 251.885ZM20.7264 132.07C20.2584 132.344 19.9182 132.793 19.7806 133.318C19.643 133.842 19.7192 134.4 19.9924 134.869L163.498 380.402C163.772 380.87 164.221 381.21 164.745 381.348C165.27 381.485 165.828 381.409 166.296 381.136L389.455 250.708C389.923 250.434 390.263 249.985 390.4 249.46C390.538 248.935 390.462 248.378 390.189 247.909L246.683 2.37613C246.409 1.9081 245.96 1.56797 245.436 1.43036C244.911 1.29275 244.353 1.3689 243.885 1.64211L20.7264 132.07Z" fill="#3F3D56"/>
<path d="M164.173 156.522L108.825 188.871C108.044 189.326 107.115 189.453 106.24 189.223C105.366 188.994 104.618 188.427 104.161 187.647L71.8117 132.299C71.3564 131.518 71.2295 130.588 71.4589 129.714C71.6882 128.839 72.2551 128.092 73.0351 127.635L128.383 95.2856C129.164 94.8303 130.094 94.7034 130.968 94.9328C131.843 95.1621 132.591 95.729 133.048 96.509L165.397 151.857C165.852 152.638 165.979 153.568 165.749 154.442C165.52 155.317 164.953 156.065 164.173 156.522V156.522ZM73.7234 128.812C73.2553 129.086 72.9152 129.535 72.7776 130.06C72.64 130.584 72.7161 131.142 72.9893 131.611L105.338 186.959C105.612 187.427 106.061 187.767 106.586 187.905C107.111 188.042 107.668 187.966 108.137 187.693L163.485 155.344C163.953 155.07 164.293 154.621 164.431 154.096C164.568 153.572 164.492 153.014 164.219 152.545L131.87 97.1973C131.596 96.7292 131.147 96.3891 130.622 96.2515C130.098 96.1139 129.54 96.19 129.071 96.4633L73.7234 128.812Z" fill="#F2F2F2"/>
<path d="M152.233 172.585L96.8851 204.934C96.1821 205.343 95.3454 205.458 94.5583 205.251C93.7712 205.045 93.0982 204.535 92.6869 203.833L60.3379 148.485C59.9282 147.782 59.814 146.945 60.0204 146.158C60.2268 145.371 60.7369 144.698 61.439 144.286L116.787 111.937C117.49 111.528 118.327 111.413 119.114 111.62C119.901 111.826 120.574 112.336 120.985 113.038L153.334 168.386C153.744 169.089 153.858 169.926 153.652 170.713C153.445 171.5 152.935 172.173 152.233 172.585V172.585Z" fill="#FA8349"/>
<path d="M285.825 130.842L112.715 232.019C112.013 232.429 111.176 232.544 110.388 232.338C109.601 232.131 108.928 231.62 108.517 230.918C108.106 230.215 107.992 229.378 108.198 228.591C108.405 227.803 108.915 227.13 109.618 226.719L282.728 125.543C283.076 125.34 283.46 125.207 283.859 125.152C284.259 125.097 284.665 125.122 285.055 125.224C285.445 125.326 285.811 125.504 286.132 125.748C286.453 125.992 286.723 126.296 286.926 126.644C287.129 126.992 287.262 127.377 287.317 127.776C287.372 128.175 287.347 128.581 287.245 128.971C287.143 129.361 286.965 129.727 286.721 130.048C286.477 130.369 286.173 130.639 285.825 130.842V130.842Z" fill="#CCCCCC"/>
<path d="M254.688 173.529L123.384 250.272C123.036 250.475 122.651 250.608 122.252 250.663C121.853 250.717 121.446 250.693 121.057 250.591C120.269 250.384 119.596 249.873 119.185 249.171C118.775 248.468 118.66 247.631 118.866 246.844C119.073 246.056 119.584 245.383 120.286 244.973L251.591 168.23C251.938 168.027 252.323 167.894 252.722 167.839C253.122 167.784 253.528 167.809 253.918 167.911C254.308 168.013 254.673 168.191 254.994 168.435C255.315 168.678 255.585 168.983 255.789 169.331C255.992 169.679 256.125 170.063 256.18 170.463C256.234 170.862 256.21 171.268 256.108 171.658C256.006 172.048 255.827 172.414 255.584 172.735C255.34 173.056 255.036 173.326 254.688 173.529V173.529Z" fill="#CCCCCC"/>
<path d="M246.004 64.0624L169.459 108.8C168.757 109.211 167.92 109.326 167.132 109.119C166.345 108.913 165.672 108.402 165.261 107.699C164.85 106.996 164.736 106.159 164.942 105.372C165.149 104.585 165.659 103.912 166.362 103.501L242.907 58.7631C243.61 58.3524 244.447 58.2377 245.234 58.4441C245.624 58.5464 245.99 58.7244 246.311 58.968C246.632 59.2117 246.902 59.5162 247.105 59.8641C247.309 60.2121 247.442 60.5967 247.496 60.996C247.551 61.3953 247.527 61.8014 247.424 62.1913C247.322 62.5811 247.144 62.947 246.901 63.2681C246.657 63.5891 246.352 63.859 246.004 64.0624Z" fill="#CCCCCC"/>
<path d="M237.57 93.4806L180.128 127.053C179.78 127.257 179.395 127.39 178.996 127.444C178.597 127.499 178.19 127.475 177.801 127.372C177.411 127.27 177.045 127.092 176.724 126.848C176.403 126.605 176.133 126.3 175.929 125.952C175.726 125.604 175.593 125.22 175.538 124.82C175.484 124.421 175.508 124.015 175.61 123.625C175.713 123.235 175.891 122.869 176.134 122.548C176.378 122.227 176.682 121.957 177.03 121.754L234.472 88.1813C235.175 87.7706 236.012 87.6558 236.8 87.8623C237.587 88.0688 238.26 88.5796 238.671 89.2823C239.081 89.985 239.196 90.8221 238.99 91.6095C238.783 92.3968 238.272 93.0698 237.57 93.4806Z" fill="#CCCCCC"/>
<path d="M307.161 167.348L134.052 268.525C133.349 268.935 132.512 269.05 131.725 268.844C130.937 268.637 130.264 268.126 129.854 267.424C129.443 266.721 129.328 265.884 129.535 265.097C129.741 264.309 130.252 263.636 130.955 263.225L304.064 162.049C304.767 161.638 305.604 161.524 306.391 161.73C307.179 161.937 307.852 162.447 308.262 163.15C308.673 163.853 308.788 164.69 308.581 165.477C308.375 166.265 307.864 166.938 307.161 167.348V167.348Z" fill="#CCCCCC"/>
<path d="M276.024 210.035L144.72 286.778C144.372 286.981 143.988 287.114 143.588 287.169C143.189 287.223 142.783 287.199 142.393 287.097C142.003 286.995 141.637 286.817 141.316 286.573C140.995 286.329 140.725 286.025 140.522 285.677C140.318 285.329 140.186 284.944 140.131 284.545C140.076 284.146 140.101 283.739 140.203 283.35C140.305 282.96 140.483 282.594 140.727 282.273C140.97 281.952 141.275 281.682 141.623 281.479L272.927 204.736C273.275 204.533 273.66 204.4 274.059 204.345C274.458 204.29 274.864 204.315 275.254 204.417C275.644 204.519 276.01 204.697 276.331 204.941C276.652 205.185 276.922 205.489 277.125 205.837C277.329 206.185 277.461 206.57 277.516 206.969C277.571 207.368 277.546 207.774 277.444 208.164C277.342 208.554 277.164 208.92 276.92 209.241C276.677 209.562 276.372 209.832 276.024 210.035V210.035Z" fill="#CCCCCC"/>
<path d="M328.498 203.854L155.388 305.031C155.04 305.234 154.656 305.367 154.257 305.422C153.857 305.477 153.451 305.452 153.061 305.35C152.671 305.248 152.305 305.07 151.984 304.826C151.663 304.582 151.393 304.278 151.19 303.93C150.987 303.582 150.854 303.197 150.799 302.798C150.744 302.399 150.769 301.993 150.871 301.603C150.973 301.213 151.151 300.847 151.395 300.526C151.639 300.205 151.943 299.935 152.291 299.732L325.401 198.555C325.749 198.352 326.133 198.219 326.532 198.164C326.932 198.11 327.338 198.134 327.728 198.236C328.118 198.338 328.484 198.517 328.805 198.76C329.126 199.004 329.396 199.308 329.599 199.656C329.802 200.004 329.935 200.389 329.99 200.788C330.045 201.187 330.02 201.594 329.918 201.983C329.816 202.373 329.638 202.739 329.394 203.06C329.15 203.381 328.846 203.651 328.498 203.854V203.854Z" fill="#CCCCCC"/>
<path d="M339.166 222.108L166.057 323.284C165.709 323.487 165.324 323.62 164.925 323.675C164.525 323.73 164.119 323.705 163.729 323.603C163.34 323.501 162.974 323.323 162.653 323.079C162.332 322.835 162.062 322.531 161.858 322.183C161.655 321.835 161.522 321.45 161.467 321.051C161.413 320.652 161.437 320.246 161.539 319.856C161.642 319.466 161.82 319.1 162.063 318.779C162.307 318.458 162.611 318.188 162.959 317.985L336.069 216.808C336.417 216.605 336.801 216.472 337.201 216.417C337.6 216.363 338.006 216.387 338.396 216.489C338.786 216.592 339.152 216.77 339.473 217.013C339.794 217.257 340.064 217.561 340.267 217.909C340.47 218.257 340.603 218.642 340.658 219.041C340.713 219.44 340.688 219.847 340.586 220.236C340.484 220.626 340.306 220.992 340.062 221.313C339.819 221.634 339.514 221.904 339.166 222.108V222.108Z" fill="#CCCCCC"/>
<path d="M283.186 293.164C285.591 290.332 287.756 287.304 289.658 284.112C291.364 281.233 293.038 278.154 293.414 274.777C293.606 273.339 293.456 271.876 292.976 270.507C292.497 269.138 291.7 267.901 290.653 266.897C289.64 265.964 288.356 265.377 286.988 265.221C285.619 265.066 284.237 265.35 283.041 266.032C281.83 266.727 280.83 267.736 280.146 268.953C279.462 270.17 279.12 271.55 279.156 272.945C279.254 274.481 279.698 275.976 280.454 277.317C281.211 278.658 282.26 279.811 283.524 280.69C288.641 284.397 296.632 284.203 302.085 281.382C308.228 278.204 311.402 269.891 306.576 264.2C305.572 263.016 303.902 264.339 304.153 265.616C304.472 267.341 305.438 268.878 306.852 269.915C308.267 270.952 310.024 271.41 311.765 271.195C313.505 270.98 315.098 270.108 316.218 268.758C317.338 267.408 317.899 265.681 317.789 263.931L315.619 265.199C318.279 266.377 321.202 266.834 324.095 266.523C326.987 266.213 329.747 265.147 332.096 263.431C333.258 262.587 334.296 261.584 335.179 260.451C336.241 259.066 338.025 258.171 339.47 257.173L349.879 249.98C351.41 248.922 349.954 246.401 348.41 247.468L338.983 253.982C337.412 255.067 335.831 256.139 334.27 257.239C333.153 258.024 332.467 259.293 331.451 260.226C329.528 261.956 327.153 263.103 324.603 263.535C322.053 263.966 319.433 263.664 317.048 262.663C316.826 262.543 316.576 262.483 316.324 262.487C316.072 262.492 315.825 262.561 315.608 262.688C315.39 262.816 315.208 262.997 315.081 263.214C314.953 263.432 314.883 263.678 314.878 263.931C314.993 264.975 314.691 266.023 314.037 266.845C313.383 267.668 312.431 268.199 311.387 268.322C310.344 268.446 309.294 268.152 308.466 267.505C307.638 266.858 307.099 265.91 306.966 264.868L304.544 266.284C307.657 269.955 305.584 275.586 301.997 278.049C297.986 280.804 292.059 281.282 287.538 279.57C286.429 279.188 285.41 278.582 284.546 277.789C283.682 276.996 282.991 276.033 282.515 274.961C282.074 273.992 281.949 272.91 282.156 271.866C282.363 270.822 282.892 269.87 283.669 269.143C284.342 268.477 285.247 268.1 286.194 268.09C287.14 268.08 288.053 268.438 288.741 269.089C289.489 269.853 290.039 270.789 290.34 271.816C290.642 272.842 290.686 273.927 290.47 274.975C290.003 277.891 288.391 280.579 286.892 283.069C285.18 285.907 283.244 288.603 281.102 291.132C279.902 292.553 281.973 294.6 283.186 293.164L283.186 293.164Z" fill="#FA8349"/>
<path d="M309.023 362.358C309.274 362.616 309.504 362.893 309.711 363.187L341.946 362.398L345.707 355.526L356.819 359.846L351.344 372.659C350.902 373.694 350.136 374.557 349.161 375.12C348.186 375.682 347.055 375.914 345.937 375.779L309.517 371.379C308.658 372.467 307.489 373.267 306.163 373.673C304.838 374.08 303.421 374.073 302.1 373.655C300.779 373.236 299.616 372.425 298.767 371.329C297.918 370.234 297.423 368.906 297.347 367.522C297.271 366.138 297.618 364.764 298.342 363.582C299.067 362.4 300.133 361.467 301.401 360.907C302.668 360.346 304.077 360.185 305.438 360.444C306.8 360.703 308.05 361.37 309.023 362.358V362.358Z" fill="#FFB7B7"/>
<path d="M414.105 558.126H403.506L398.464 517.242L414.107 517.243L414.105 558.126Z" fill="#FFB7B7"/>
<path d="M416.808 568.4L382.632 568.399V567.967C382.632 564.439 384.034 561.056 386.528 558.561C389.023 556.066 392.406 554.665 395.934 554.665H395.935L416.809 554.665L416.808 568.4Z" fill="#2F2E41"/>
<path d="M317.861 557.891L308.114 553.726L319.537 514.149L333.922 520.295L317.861 557.891Z" fill="#FFB7B7"/>
<path d="M316.311 568.4L284.882 554.974L285.052 554.576C286.438 551.332 289.056 548.771 292.33 547.457C295.604 546.143 299.266 546.183 302.51 547.569L302.511 547.569L321.707 555.77L316.311 568.4Z" fill="#2F2E41"/>
<path d="M362.586 371.214L361.819 383.634L384.224 386.032L407.666 388.54L400.766 369.681L362.586 371.214Z" fill="#FFB7B7"/>
<path d="M361.114 383.794L352.41 323.119L367.496 318.175L371.927 312.098L393.489 313.374L396.654 320.465L408.151 325.897L406.384 358.711L407.673 386.161L361.114 383.794Z" fill="#2F2E41"/>
<path d="M355.636 367.534L340.291 361.395L340.357 361.122C340.423 360.846 346.953 333.555 347.821 329.169C348.724 324.6 352.024 323.337 352.164 323.286L352.267 323.248L358.34 325.096L361.007 346.051L355.636 367.534Z" fill="#2F2E41"/>
<path d="M325.755 550.705L305.329 546.515L337.976 456.431L349.149 425.705C349.149 425.705 356.236 401.069 359.437 391.535L361.37 378.743L407.11 383.806C407.11 383.806 419.885 402.567 416.004 433.147L417.759 548.086L397.333 549.134L380.224 433.212L350.196 496.76C350.196 496.76 340.732 523.878 333.96 529.755L325.755 550.705Z" fill="#2F2E41"/>
<path d="M388.767 388.072C389.127 388.064 389.486 388.083 389.843 388.131L411.182 363.957L408.699 356.527L419.423 351.315L425.095 364.041C425.554 365.07 425.666 366.219 425.416 367.316C425.165 368.413 424.566 369.4 423.707 370.128L395.719 393.843C395.932 395.212 395.723 396.614 395.121 397.862C394.518 399.11 393.549 400.145 392.344 400.83C391.139 401.514 389.754 401.815 388.373 401.693C386.992 401.57 385.682 401.031 384.615 400.145C383.549 399.26 382.777 398.071 382.403 396.737C382.029 395.402 382.07 393.985 382.521 392.675C382.971 391.364 383.81 390.222 384.926 389.399C386.042 388.577 387.382 388.114 388.767 388.072V388.072Z" fill="#FFB7B7"/>
<path d="M409.478 366.31L400.577 345.371L404.049 330.787L407.789 326.061C408.063 325.944 408.359 325.885 408.657 325.888C408.955 325.89 409.249 325.955 409.521 326.077C410.9 326.632 412.075 328.334 413.012 331.135L421.355 354.897L409.478 366.31Z" fill="#2F2E41"/>
<path d="M363.296 304.34V288.554C363.296 282.944 365.525 277.564 369.491 273.597C373.458 269.63 378.838 267.402 384.448 267.402C390.058 267.402 395.439 269.63 399.405 273.597C403.372 277.564 405.601 282.944 405.601 288.554V304.34C405.6 305.093 405.3 305.815 404.768 306.348C404.235 306.88 403.513 307.18 402.759 307.181H366.137C365.384 307.18 364.662 306.88 364.129 306.348C363.596 305.815 363.297 305.093 363.296 304.34V304.34Z" fill="#2F2E41"/>
<path d="M380.102 306.813C388.667 306.813 395.61 299.87 395.61 291.305C395.61 282.74 388.667 275.797 380.102 275.797C371.537 275.797 364.594 282.74 364.594 291.305C364.594 299.87 371.537 306.813 380.102 306.813Z" fill="#FFB7B7"/>
<path d="M358.292 289.817C358.297 285.381 360.061 281.128 363.198 277.991C366.335 274.854 370.588 273.089 375.024 273.084H378.182C382.618 273.089 386.871 274.854 390.008 277.991C393.145 281.128 394.909 285.381 394.914 289.817V290.133H388.242L385.966 283.761L385.511 290.133H382.063L380.915 286.918L380.685 290.133H358.292L358.292 289.817Z" fill="#2F2E41"/>
<path d="M378.576 308.956C378.262 308.532 378.075 308.028 378.036 307.502C377.997 306.976 378.107 306.45 378.353 305.984C381.699 299.62 386.383 287.862 380.165 280.611L379.718 280.09H397.769V307.19L381.371 310.083C381.205 310.112 381.037 310.127 380.869 310.127C380.421 310.127 379.98 310.021 379.581 309.818C379.183 309.614 378.838 309.319 378.576 308.956V308.956Z" fill="#2F2E41"/>
<path d="M168.012 549.196L177.59 552.619L195.353 517.301L181.216 512.249L168.012 549.196Z" fill="#9F616A"/>
<path d="M162.25 557.608L166.686 545.195L185.55 551.937C188.736 553.08 191.339 555.44 192.787 558.499C194.236 561.558 194.412 565.067 193.276 568.256L193.136 568.646L162.25 557.608Z" fill="#2F2E41"/>
<path d="M230.3 558.67L240.473 558.67L245.312 519.434L230.299 519.435L230.3 558.67Z" fill="#9F616A"/>
<path d="M227.706 555.349L247.738 555.348H247.739C249.416 555.348 251.076 555.679 252.625 556.32C254.174 556.962 255.581 557.902 256.767 559.087C257.952 560.273 258.892 561.68 259.534 563.229C260.176 564.778 260.506 566.438 260.506 568.115V568.53L227.706 568.531L227.706 555.349Z" fill="#2F2E41"/>
<path d="M207.118 308.002L211.542 299.261C211.542 299.261 228.022 303.39 229.52 312.941L207.118 308.002Z" fill="#F1F1F1"/>
<path d="M188.864 407.955L200.895 475.09L168.95 531.584L188.034 539.051L220.394 484.289L224.542 469.354L227.031 547.348L244.242 546.826L252.133 473.998L239.477 406.295L188.864 407.955Z" fill="#2F2E41"/>
<path d="M211.701 423.826C194.027 423.826 182.806 420.445 182.555 420.392L182.148 420.305L191.353 377.623L191.768 338.254C191.768 321.57 202.748 309.27 204.272 308.135C204.529 307.122 205.003 306.178 205.662 305.367C206.322 304.557 207.15 303.9 208.089 303.443C211.752 301.781 216.228 303.776 216.416 303.861L229.85 308.898L229.913 309.084C230.075 309.562 247.769 367.65 247.769 367.65C247.769 367.65 246.698 418.404 246.325 420.066C246.325 420.066 221.522 423.826 211.701 423.826Z" fill="#3F3D56"/>
<path d="M225.282 296.508C235.31 296.508 243.439 288.379 243.439 278.352C243.439 268.324 235.31 260.195 225.282 260.195C215.254 260.195 207.125 268.324 207.125 278.352C207.125 288.379 215.254 296.508 225.282 296.508Z" fill="#9F616A"/>
<path opacity="0.2" d="M205.038 341.474L236.803 385.793L241.494 365.097L205.038 341.474Z" fill="black"/>
<path d="M304.628 371.629C303.735 372.336 302.697 372.838 301.589 373.101C300.48 373.363 299.328 373.379 298.212 373.148C297.097 372.917 296.046 372.444 295.133 371.762C294.22 371.081 293.468 370.208 292.929 369.204L265.588 373.58L271.511 360.467L296.567 358.322C298.313 357.528 300.289 357.403 302.121 357.969C303.954 358.536 305.514 359.755 306.508 361.395C307.502 363.035 307.859 364.983 307.513 366.869C307.166 368.756 306.14 370.449 304.628 371.629H304.628Z" fill="#9F616A"/>
<path d="M272.919 359.721L282.743 358.757L285.466 372.462L273.104 372.68L272.919 359.721Z" fill="#F1F1F1"/>
<path d="M280.972 377.237L232.858 372.953L208.564 334.316L208.489 333.974C207.8 330.818 208.282 327.519 209.847 324.692C211.412 321.866 213.952 319.706 216.993 318.615C220.034 317.524 223.368 317.578 226.373 318.765C229.377 319.953 231.847 322.193 233.321 325.068L247.582 352.886L276.364 357.237L280.972 377.237Z" fill="#3F3D56"/>
<path d="M209.817 294.116L224.887 294.657C225.805 294.69 228.299 284.776 228.625 282.719C228.883 281.38 229.619 280.181 230.697 279.345C231.774 278.51 233.119 278.095 234.48 278.179C235.608 278.285 238.453 276.178 241.388 273.682C246.961 268.944 246.671 260.045 240.549 256.042C240.382 255.932 240.218 255.833 240.057 255.742C236.195 253.581 231.677 252.855 227.252 252.799C223.24 252.749 219.114 253.254 215.58 255.153C209.244 258.557 205.872 265.996 205.575 273.183C205.279 280.37 207.583 287.397 210.198 294.098" fill="#2F2E41"/>
<path d="M587.598 569.243H0.789144C0.57985 569.243 0.379127 569.159 0.231134 569.011C0.0831411 568.863 0 568.663 0 568.453C0 568.244 0.0831411 568.043 0.231134 567.895C0.379127 567.747 0.57985 567.664 0.789144 567.664H587.912C588.121 567.664 588.322 567.747 588.47 567.895C588.618 568.043 588.701 568.244 588.701 568.453C588.701 568.889 588.034 569.243 587.598 569.243Z" fill="#CBCBCB"/>
</svg>
